<svg xmlns="http://www.w3.org/2000/svg" width="49" height="49" viewBox="223.5 223.5 49 49"><path d="M272.5 244h-1.8l-2.6 1.4c-.3-.2-.6-.3-.9-.4l-3.3-.8v-.4c1.5-1 2.4-2.7 2.4-4.5v-1.4c0-3.1-2.4-5.6-5.4-5.7h-.4l.9-2-4.4-4.2-2.5 1.6c-.9-.5-1.9-.9-3-1.2l-.6-2.9h-6l-.6 2.9c-1 .3-2 .7-3 1.2L239 226l-4.2 4.2.8 2h-.1c-1.5 0-2.9.5-4 1.6s-1.7 2.5-1.7 4v1.6c0 1.8.9 3.5 2.4 4.5v.4l-2.2.5-3.9-2.3h-2.6v16.4l7.8 2.6h1.5l.2-.7 2.4 1.4c0 1.3 1.1 2.3 2.4 2.4 0 1.3 1.1 2.3 2.4 2.4 0 1.3 1.1 2.3 2.4 2.4 0 1.3 1.1 2.4 2.5 2.4.5 0 1-.2 1.4-.4l.7.6c.4.4 1 .6 1.6.6h.1c1.3 0 2.4-1.1 2.4-2.4 1.3 0 2.4-1.1 2.4-2.4 1.3 0 2.4-1.1 2.4-2.4 1.3 0 2.4-1.1 2.4-2.4v-.2l14.2-7.1V244zm-7.9-6.1v1.4c0 1.4-.8 2.7-2 3.4l-.4.2v2.5l3.9 1-8.7 4.6v-2.1c0-1.1-.4-2-1.1-2.8l2.7-.7V243l-.4-.2c-1.2-.7-2-2-2-3.4v-1.6c0-1.1.4-2.1 1.2-2.8.8-.8 1.8-1.2 2.9-1.1 2.2-.1 3.9 1.8 3.9 4zm-15.4 12.5l-3.6-1.1c-1.6-.5-3.4-.6-5.1-.2l-.5.1v-.2c0-1.1.7-2 1.8-2.3l4.5-1.1V243l-.4-.2c-1.2-.7-2-2-2-3.4v-1.6c0-1.1.4-2.1 1.2-2.8.8-.8 1.8-1.2 2.9-1.1 2.1.1 3.8 1.9 3.8 4.1v1.4c0 1.4-.8 2.7-2 3.4l-.4.2v2.5l4.5 1.1c1.1.3 1.8 1.2 1.8 2.3v3l-.2.1h-.5l-4.9-1.4c-.1-.1-.5-.2-.9-.2zm-8.9-15.1c1.5-2.9 4.5-4.7 7.7-4.7s6.2 1.8 7.7 4.7c-.4.8-.6 1.6-.6 2.5v1.6c0 1.8.9 3.5 2.4 4.5v.4l-3.2.8-3.2-.8v-.4c1.5-1 2.4-2.7 2.4-4.5V238c0-3.1-2.4-5.6-5.4-5.7-1.5 0-2.9.5-4 1.6s-1.7 2.5-1.7 4v1.6c0 1.8.9 3.5 2.4 4.5v.4l-3.2.8-3.2-.8v-.4c1.5-1 2.4-2.7 2.4-4.5v-1.4c.1-1.1-.1-2-.5-2.8zm-3.7-4.8l2.5-2.5 2.2 1.4.4-.3c1.1-.7 2.2-1.1 3.4-1.4l.5-.1.5-2.6h3.5l.5 2.6.5.1c1.2.3 2.4.8 3.4 1.4l.4.3 2.2-1.4 2.5 2.5-.9 2.1c-.6.3-1.2.6-1.7 1.1l-.1.1c-1.9-3-5.2-4.8-8.7-4.8-3.6 0-6.9 1.9-8.7 4.9-.5-.5-1.1-.9-1.7-1.2l-.7-2.2zm-2.8 15V243l-.4-.2c-1.2-.7-2-2-2-3.4v-1.6c0-1.1.4-2.1 1.2-2.8.8-.8 1.8-1.2 2.9-1.1 2.1.1 3.8 1.9 3.8 4.1v1.4c0 1.4-.8 2.7-2 3.4l-.4.2v2.5l2.7.7c-.7.7-1.1 1.7-1.1 2.8v.6l-2.5.5.1-.2v-1.5l-4.2-2.4 1.9-.5zm-8.7-1.5h.6l5.7 3.3-2.9 11.5-3.4-1.1V244zm6.4 15.9l-1.6-.5 2.8-11.1 1.8 1.1v.2l-3 10.3zm5.4 2.2c0-.2.1-.5.3-.6l1.4-1.4c.2-.2.4-.3.6-.3.5 0 .9.4.9.9 0 .2-.1.5-.3.6l-1.4 1.4c-.2.2-.4.3-.6.3-.5 0-.9-.4-.9-.9zm2.4 2.4c0-.2.1-.5.3-.6l1.4-1.4c.2-.2.4-.3.6-.3.5 0 .9.4.9.9 0 .2-.1.5-.3.6l-1.4 1.4c-.2.2-.4.3-.6.3-.5 0-.9-.4-.9-.9zm2.4 2.4c0-.2.1-.5.3-.6l1.4-1.4c.2-.2.4-.3.6-.3.5 0 .9.4.9.9 0 .2-.1.5-.3.6l-1.4 1.4c-.2.2-.4.3-.6.3-.5 0-.9-.4-.9-.9zm3.2 3.2c-.5 0-.9-.4-.9-.9 0-.2.1-.5.3-.6l1.4-1.4c.2-.2.4-.3.6-.3.5 0 .9.4.9.9 0 .2-.1.5-.3.6l-1.4 1.4c-.1.2-.3.3-.6.3zm3.9.8h-.1c-.2 0-.4-.1-.5-.2l-.6-.5.6-.6c.2-.2.4-.5.5-.7l.7.6c.2.2.3.4.3.6-.1.4-.5.8-.9.8zm7-7.1h-.1c-.2 0-.4-.1-.5-.2l-4.3-3.6-1 1.2 4.2 3.5c.2.2.3.4.3.6 0 .5-.4.8-.8.8h-.2c-.2 0-.4-.1-.5-.2l-4.3-3.6-1 1.2 4.2 3.5c.2.2.3.4.3.6 0 .5-.4.8-.8.8-.3 0-.6-.1-.8-.3l-1.8-1.5c-.4-.8-1.2-1.3-2.1-1.4 0-1.3-1.1-2.3-2.4-2.4 0-1.3-1.1-2.3-2.4-2.4 0-1.3-1.1-2.4-2.5-2.4-.6 0-1.3.3-1.7.7l-1.4 1.4c-.1.1-.2.2-.2.3l-2.4-1.5 2.1-7.4 5.3-1.2c1.4-.3 2.9-.2 4.2.2l1.2.4-3.9 2c-.9.5-1.5 1.4-1.5 2.4v.2c0 1.5 1.2 2.6 2.6 2.6.5 0 1-.1 1.4-.4l2.9-1.8c.6-.4 1.4-.3 1.9.2l6.7 6c.2.2.3.4.3.6-.1.7-.5 1.1-1 1.1zm15.1-9.2l-13.3 6.7-.1-.1-6.7-6c-.6-.5-1.3-.8-2.1-.8-.6 0-1.1.2-1.6.5l-2.9 1.8c-.2.1-.4.2-.5.2-.6 0-1.1-.5-1.1-1.1v-.2c0-.4.2-.8.6-1l4.4-2.2c.8-.4 1.7-.5 2.5-.2l5 1.4h1.2l14.8-7.8v8.8z"/></svg>