<svg xmlns="http://www.w3.org/2000/svg" width="554" height="1752.97" viewBox="0 0 554 1752.97"><defs><style>.cls-1{fill-opacity:0;stroke:#fff;stroke-linejoin:round;stroke-width:10px;fill-rule:evenodd;opacity:.1}</style></defs><path id="Фигура_9_копия_2" data-name="Фигура 9 копия 2" class="cls-1" d="M1912.09 1202.17c-100.7-91.96-315.61-282.9-458.08-415.305 78.45 162.253 148.04 318.695 227.7 486.845l231.81 496.27c29.42-25.21 469.87-947.667 469.49-987.35-80.67 51.952-366.7 320.4-470.92 419.54zm7.24-1175.164c-51.7 88.327-186.84 432.487-195.91 442.719L1665.7 320.44c-6.33 104.9-127.53 261.111-190.14 405.628 151.65 138.846 340.28 306.772 436.01 394.212 92.78-88.23 315.12-297.156 446.05-406.528-63.93-141.023-178.5-291.374-184.66-393.312l-57.71 149.285c-3.79-4.283-159.52-374.628-195.92-442.719z" transform="translate(-1449 -22)"/></svg>