<svg xmlns="http://www.w3.org/2000/svg" width="188" height="51.2" viewBox="47.2 16.9 188 51.2"><path d="M130.8 43.8l-6.1 17.1h-5.5l11.6-30.2 12 30.2H137zm54.9 3.5l-3.2 13.6h-5.2l5.1-20.8c1.1 2.3 2.1 4.7 3.3 7.2zm15.4 13.6l-3-13.6c1.2-2.5 2.3-4.9 3.3-7.1l4.9 20.7h-5.2zM102.8 36c-2.6 0-4.9.9-6.7 2.8-1.8 1.8-2.7 4.2-2.7 7 0 3.2 1.1 5.7 3.4 7.5 1.8 1.4 3.8 2.2 6.1 2.2 2.6 0 4.8-.9 6.6-2.8 1.8-1.9 2.7-4.2 2.7-6.9s-.9-5-2.7-6.9c-1.9-1.9-4.1-2.9-6.7-2.9zm0-5.3c4 0 7.5 1.5 10.4 4.4 2.9 2.9 4.4 6.5 4.4 10.7 0 4.2-1.4 7.7-4.3 10.6-2.9 2.9-6.4 4.3-10.4 4.3-4.3 0-7.9-1.5-10.7-4.4-2.8-3-4.3-6.5-4.3-10.6 0-2.7.7-5.2 2-7.5s3.1-4.1 5.5-5.4c2.2-1.4 4.7-2.1 7.4-2.1zm111.5 2.4v27.8h5.7V38.8h9.4v22.1h5.8V33.1zm-59 14.8V33.1h-5.7v27.8h5.7v-6l9-9.6v15.6h5.7V32.1zm36.4-5.8c-2.1-2-6.7-6.1-9.7-9 1.7 3.5 3.1 6.9 4.8 10.5l4.9 10.7c.6-.5 10-20.4 10-21.3-1.7 1.2-8.1 7.9-10 9.1z"/><path fill="#E41E26" d="M60.4 51.4c-2.9-2.7-9.1-8.3-13.2-12.2 2.3 4.8 4.3 9.4 6.6 14.3l6.7 14.6c.9-.7 13.6-27.8 13.6-29-2.4 1.5-10.7 9.4-13.7 12.3z"/><path fill="#E41E26" d="M60.6 16.9c-1.5 2.6-5.4 12.7-5.7 13l-1.7-4.4c-.2 3.1-3.7 7.7-5.5 11.9 4.4 4.1 9.8 9 12.6 11.6 2.7-2.6 9.1-8.7 12.9-11.9-1.8-4.1-5.2-8.6-5.3-11.5L66.2 30c0-.2-4.5-11.1-5.6-13.1z"/></svg>