<svg width="239" height="66" viewBox="0 0 239 66" xmlns="http://www.w3.org/2000/svg"><path d="M106.357 31.02l-7.706 21.837h-6.995l14.788-38.423 15.137 38.423h-7.315zm69.572 4.534l-4.026 17.304h-6.61l6.43-26.543c1.366 3.019 2.736 6.066 4.2 9.224zm19.555 17.303l-3.776-17.274a822.552 822.552 0 0 0 4.173-9.08l6.208 26.354zM70.876 21.175c-3.349 0-6.165 1.172-8.446 3.515-2.282 2.343-3.423 5.322-3.423 8.936 0 4.026 1.437 7.212 4.309 9.555 2.232 1.832 4.794 2.747 7.682 2.747 3.267 0 6.049-1.188 8.347-3.564 2.299-2.376 3.448-5.305 3.448-8.787 0-3.466-1.158-6.399-3.472-8.8-2.314-2.401-5.13-3.602-8.445-3.602zm.073-6.782c5.12 0 9.521 1.865 13.205 5.594 3.684 3.73 5.526 8.276 5.526 13.639 0 5.314-1.817 9.811-5.452 13.49-3.634 3.68-8.045 5.52-13.23 5.52-5.431 0-9.944-1.89-13.538-5.669-3.593-3.779-5.391-8.268-5.391-13.466 0-3.482.837-6.683 2.511-9.604 1.674-2.921 3.975-5.235 6.904-6.944 2.93-1.706 6.085-2.56 9.465-2.56zm141.193 3.017v35.447h7.262V24.719h11.916v28.138h7.258V17.41zm-74.756 18.853V17.41h-7.195v35.447h7.195v-7.592l11.401-12.312v19.904h7.255V16.175zm46.132-7.317c-2.71-2.529-8.492-7.779-12.326-11.42 2.111 4.462 3.984 8.763 6.127 13.386l6.238 13.646c.792-.693 12.643-26.058 12.633-27.149-2.171 1.43-10.256 9.946-12.672 11.537z" fill="#fff"/><g fill="#e41e26"><path d="M17.236 44.297C13.55 40.857 5.683 33.715.468 28.762c2.872 6.07 5.42 11.921 8.335 18.211l8.486 18.563c1.077-.943 17.2-35.448 17.186-36.933-2.954 1.944-13.424 11.985-17.239 15.694z"/><path d="M17.501.339c-1.892 3.304-6.839 16.178-7.172 16.56l-2.113-5.584c-.232 3.924-4.668 9.767-6.96 15.173 5.551 5.193 12.456 11.475 15.96 14.746 3.396-3.301 11.535-11.115 16.327-15.206-2.34-5.275-6.534-10.899-6.759-14.712L24.671 16.9c-.137-.161-5.838-14.014-7.17-16.561z"/></g></svg>