<?xml version="1.0" encoding="utf-8"?>
<!-- Generator: Adobe Illustrator 17.0.0, SVG Export Plug-In . SVG Version: 6.00 Build 0)  -->
<!DOCTYPE svg PUBLIC "-//W3C//DTD SVG 1.1//EN" "http://www.w3.org/Graphics/SVG/1.1/DTD/svg11.dtd">
<svg version="1.1" id="Слой_1" xmlns="http://www.w3.org/2000/svg" xmlns:xlink="http://www.w3.org/1999/xlink" x="0px" y="0px"
	 width="141.732px" height="141.732px" viewBox="0 0 141.732 141.732" enable-background="new 0 0 141.732 141.732"
	 xml:space="preserve">
<g>
	<path fill-rule="evenodd" clip-rule="evenodd" fill="#ffffff" d="M71.407,91.988c-7.192-6.67-22.542-20.519-32.717-30.122
		c5.604,11.769,10.574,23.114,16.263,35.31l16.557,35.993c2.101-1.829,33.559-68.733,33.532-71.612
		C99.281,65.327,78.852,84.797,71.407,91.988L71.407,91.988z"/>
	<path fill-rule="evenodd" clip-rule="evenodd" fill="#ffffff" d="M71.925,6.755c-3.692,6.406-13.345,31.368-13.993,32.11
		L53.81,28.037c-0.452,7.609-9.109,18.938-13.58,29.419c10.831,10.07,24.304,22.25,31.142,28.591
		c6.626-6.4,22.507-21.552,31.858-29.485C98.664,46.336,90.48,35.431,90.041,28.037l-4.122,10.827
		C85.647,38.554,74.525,11.693,71.925,6.755L71.925,6.755z"/>
</g>
</svg>
