<?xml version="1.0" encoding="UTF-8"?>
<svg width="60px" height="80px" viewBox="0 0 60 80" xmlns="http://www.w3.org/2000/svg" xmlns:xlink="http://www.w3.org/1999/xlink" version="1.1">
 <!-- Generated by Pixelmator Pro 1.6 -->
 <g id="group">
  <g id="New-Group">
   <g id="group-1">
    <path id="Path" d="M29.236 51.297 C25.55 47.857 17.683 40.715 12.468 35.762 15.34 41.832 17.888 47.683 20.803 53.973 L29.289 72.536 C30.366 71.593 46.489 37.088 46.475 35.603 43.521 37.547 33.051 47.588 29.236 51.297 Z" fill="#e41e26" fill-opacity="1" stroke="none"/>
    <path id="Path-1" d="M29.501 7.339 C27.609 10.643 22.662 23.517 22.329 23.899 L20.216 18.315 C19.984 22.239 15.548 28.082 13.256 33.488 18.807 38.681 25.712 44.963 29.216 48.234 32.612 44.933 40.751 37.119 45.543 33.028 43.203 27.753 39.009 22.129 38.784 18.316 L36.671 23.9 C36.534 23.739 30.833 9.886 29.501 7.339 Z" fill="#e41e26" fill-opacity="1" stroke="none"/>
   </g>
  </g>
 </g>
</svg>
