<svg xmlns="http://www.w3.org/2000/svg" width="92" height="92" viewBox="374.9 251.6 92 92"><path d="M378.1 294.6h10l3.6 7.1c.2.5.8.8 1.3.8.6 0 1.1-.3 1.3-.8l3.6-7.1h.7c.8 0 1.5-.7 1.5-1.5s-.7-1.5-1.5-1.5H397c-.6 0-1.1.3-1.3.8l-2.7 5.3-2.7-5.3c-.2-.5-.8-.8-1.3-.8h-10.9c-.1 0-.2-.1-.2-.2v-36.7c0-.1.1-.2.2-.2h29.7c.1 0 .2.1.2.2v15.9c0 .8.7 1.5 1.5 1.5s1.5-.7 1.5-1.5v-15.9c0-1.7-1.4-3.2-3.2-3.2h-29.7c-1.7 0-3.2 1.4-3.2 3.2v36.6c0 1.9 1.5 3.3 3.2 3.3z"/><path d="M392.9 257.5c-4 0-7.3 3.3-7.3 7.3s3.3 7.3 7.3 7.3 7.3-3.3 7.3-7.3c.1-4-3.2-7.3-7.3-7.3zm0 11.8c-2.4 0-4.4-2-4.4-4.4 0-2.4 2-4.4 4.4-4.4 2.4 0 4.4 2 4.4 4.4 0 2.4-1.9 4.4-4.4 4.4zm0 8.8c1.7 0 3.4.5 4.9 1.4.7.4 1.6.2 2-.5.4-.7.2-1.6-.5-2-1.9-1.2-4.1-1.8-6.4-1.8-6.7 0-12.1 5.4-12.1 12.1 0 .8.7 1.5 1.5 1.5h16.3c.8 0 1.5-.7 1.5-1.5s-.7-1.5-1.5-1.5h-14.7c.7-4.4 4.5-7.7 9-7.7zm70.9-26.5h-29.7c-1.7 0-3.2 1.4-3.2 3.2v15.9c0 .8.7 1.5 1.5 1.5s1.5-.7 1.5-1.5v-15.9c0-.1.1-.2.2-.2h29.7c.1 0 .2.1.2.2v36.6c0 .1-.1.2-.2.2h-10.9c-.6 0-1.1.3-1.3.8l-2.7 5.3-2.7-5.3c-.2-.5-.8-.8-1.3-.8h-1.6c-.8 0-1.5.7-1.5 1.5s.7 1.5 1.5 1.5h.7l3.6 7.1c.2.5.8.8 1.3.8.6 0 1.1-.3 1.3-.8l3.6-7.1h10c1.7 0 3.2-1.4 3.2-3.2v-36.6c-.1-1.7-1.5-3.2-3.2-3.2z"/><path d="M449 257.5c-4 0-7.3 3.3-7.3 7.3s3.3 7.3 7.3 7.3 7.3-3.3 7.3-7.3-3.3-7.3-7.3-7.3zm0 11.8c-2.4 0-4.4-2-4.4-4.4 0-2.4 2-4.4 4.4-4.4 2.4 0 4.4 2 4.4 4.4 0 2.4-2 4.4-4.4 4.4zm-7.1 18c0 .8.7 1.5 1.5 1.5h16.3c.8 0 1.5-.7 1.5-1.5 0-6.7-5.4-12.1-12.1-12.1-2.3 0-4.5.6-6.4 1.8-.7.4-.9 1.3-.5 2s1.3.9 2 .5c1.5-.9 3.1-1.4 4.9-1.4 4.6 0 8.4 3.3 9.1 7.7h-14.7c-1 0-1.6.6-1.6 1.5zm-38.9-9V315c0 1.7 1.4 3.2 3.2 3.2h10l3.6 7.1c.2.5.8.8 1.3.8.6 0 1.1-.3 1.3-.8l3.6-7.1h10c1.7 0 3.2-1.4 3.2-3.2v-36.7c0-1.7-1.4-3.2-3.2-3.2h-29.7c-1.9 0-3.3 1.4-3.3 3.2zm33 0V315c0 .1-.1.2-.2.2h-10.9c-.6 0-1.1.3-1.3.8l-2.7 5.3-2.7-5.3c-.2-.5-.8-.8-1.3-.8H406c-.1 0-.2-.1-.2-.2v-36.7c0-.1.1-.2.2-.2h29.7c.2-.1.3 0 .3.2z"/><path d="M420.9 295.7c4 0 7.3-3.3 7.3-7.3s-3.3-7.3-7.3-7.3-7.3 3.3-7.3 7.3 3.3 7.3 7.3 7.3zm0-11.8c2.4 0 4.4 2 4.4 4.4 0 2.4-2 4.4-4.4 4.4-2.4 0-4.4-2-4.4-4.4 0-2.4 2-4.4 4.4-4.4zm-10.6 28.3h21.3c.8 0 1.5-.7 1.5-1.5 0-6.7-5.4-12.1-12.1-12.1s-12.1 5.4-12.1 12.1c-.1.8.6 1.5 1.4 1.5zm10.6-10.7c4.6 0 8.4 3.3 9.1 7.7h-18.1c.7-4.3 4.5-7.7 9-7.7zm28.7 36.4c.9 0 1.6-.7 1.6-1.6s-.7-1.6-1.6-1.6-1.6.7-1.6 1.6.8 1.6 1.6 1.6zm-8 0c.9 0 1.6-.7 1.6-1.6s-.7-1.6-1.6-1.6-1.6.7-1.6 1.6.7 1.6 1.6 1.6zm16 0c.9 0 1.6-.7 1.6-1.6s-.7-1.6-1.6-1.6-1.6.7-1.6 1.6.8 1.6 1.6 1.6z"/><path d="M465.5 329h-89.1c-.8 0-1.5.7-1.5 1.5v11.7c0 .8.7 1.5 1.5 1.5h89.1c.8 0 1.5-.7 1.5-1.5v-11.7c-.1-.9-.7-1.5-1.5-1.5zm-87.6 2.9h54.3v8.8h-54.3v-8.8zm86.1 8.8h-28.9v-8.8H464v8.8z"/></svg>