<svg width="58" height="57" viewBox="0 0 58 57" xmlns="http://www.w3.org/2000/svg"><path d="M55.5 35.3V23.4c0-.5-.4-.8-.8-.8-.5 0-.8.4-.8.8v11.8h-1.8V5.8c0-.8-.6-1.4-1.4-1.4h-4V2.7h5.7c.8 0 1.5.7 1.5 1.5v22c0 .5.4.8.8.8.5 0 .8-.4.8-.8v-22c0-1.7-1.4-3.1-3.1-3.1h-5.7V.8c0-.5-.4-.8-.8-.8-.5 0-.8.4-.8.8v.3H29.9V.8c0-.5-.4-.8-.8-.8s-.8.4-.8.8v.3H13V.8c0-.5-.4-.8-.8-.8-.5 0-.8.4-.8.8v.3H5.7C4 1.1 2.6 2.5 2.6 4.2v31.1c-1.1.2-2 1.2-2 2.4v.1c0 1.4 1.1 2.5 2.5 2.5H25v11.8h-1.5c-1.2 0-2.3.9-2.3 2.4 0 1.3 1 2.3 2.3 2.3h3.7c.5 0 .8-.4.8-.8 0-.5-.4-.8-.8-.8h-3.7c-.9 0-.9-1.4 0-1.4h11.2c.9 0 .9 1.4 0 1.4h-9.2c-.5 0-.8.4-.8.8 0 .5.4.8.8.8h9.2c1.2 0 2.3-.9 2.3-2.4 0-1.3-1-2.3-2.3-2.3h-1.5V40.3H55c1.4 0 2.5-1.1 2.5-2.5v-.1c0-1.1-.9-2.1-2-2.4zM29.8 2.8H45v1.7H29.8zM13 2.8h15.2v1.7H13zm.9 6.3c.5 0 .8-.4.8-.8s-.4-.8-.8-.8H13V6.2h15.2v1.3h-.9c-.5 0-.8.4-.8.8s.4.8.8.8h3.4c.5 0 .8-.4.8-.8s-.4-.8-.8-.8h-.9V6.2H45v1.3h-.9c-.5 0-.8.4-.8.8s.4.8.8.8h3.4c.5 0 .8-.4.8-.8s-.4-.8-.8-.8h-.9V6.2h3.7v29.1H7.5V6.2h3.7v1.3h-.9c-.5 0-.8.4-.8.8s.4.8.8.8zM4.2 4.3c0-.8.7-1.5 1.5-1.5h5.7v1.7h-4c-.8 0-1.4.6-1.4 1.4v29.4H4.2zm27.3 47.9h-4.9V40.4h4.9zm24.3-14.3c0 .4-.4.8-.8.8H3c-.4 0-.8-.4-.8-.8v-.1c0-.4.4-.8.8-.8h52c.4 0 .8.4.8.8z"/></svg>