<svg xmlns="http://www.w3.org/2000/svg" width="23" height="23" viewBox="286.1 409.4 23 23"><g fill="#FFF"><path d="M307.2 409.4h-11.5c-1.1 0-1.9.9-1.9 1.9v3.4c0 .3.2.5.5.5h1c.3 0 .5-.2.5-.5v-3.4h11.5v19.2h-11.5v-3.4c0-.3-.2-.5-.5-.5h-1c-.3 0-.5.2-.5.5v3.4c0 1.1.9 1.9 1.9 1.9h11.5c1.1 0 1.9-.9 1.9-1.9v-19.2c0-1-.8-1.9-1.9-1.9z"/><path d="M296.8 424.9c-.1.1-.2.2-.2.4v1c0 .2.1.4.3.4h.2c.1 0 .2 0 .3-.1l5.8-5.3c.1-.1.2-.2.2-.4s-.1-.3-.2-.4l-5.8-5.3c-.1-.1-.3-.2-.5-.1s-.3.2-.3.4v1c0 .1.1.3.2.4l3.3 3h-13.6c-.3 0-.5.2-.5.5v1c0 .3.2.5.5.5h13.6l-3.3 3z"/></g></svg>