<svg fill="#000" xmlns="http://www.w3.org/2000/svg" width="92" height="88.2" viewBox="374.9 244.1 92 88.2"><path d="M406.1 265.7a6.7 6.7 0 1 0 6.7-6.7c-3.7-.1-6.7 3-6.7 6.7zm6.7-3.2c1.7 0 3.1 1.4 3.1 3.1s-1.4 3.1-3.1 3.1c-1.7 0-3.1-1.4-3.1-3.1s1.4-3.1 3.1-3.1zm21.6 21.1c3 0 5.4-2.4 5.4-5.4s-2.4-5.4-5.4-5.4c-3 0-5.4 2.4-5.4 5.4s2.4 5.4 5.4 5.4zm0-7.1c1 0 1.8.8 1.8 1.8s-.8 1.8-1.8 1.8-1.8-.8-1.8-1.8.8-1.8 1.8-1.8zm-11.8 31.6c0-.1-.1-.2-.2-.3-.1-.1-.1-.2-.2-.3-.1-.1-.2-.2-.3-.2-.1-.1-.2-.1-.3-.2-.1 0-.2-.1-.3-.1h-.7c-.1 0-.2.1-.3.1-.1 0-.2.1-.3.2-.1.1-.2.1-.3.2-.1.1-.2.2-.2.3-.1.1-.1.2-.2.3 0 .1-.1.2-.1.3v.8c0 .1.1.2.1.3 0 .1.1.2.2.3.1.1.1.2.2.3.1.1.2.2.3.2.1.1.2.1.3.2.1 0 .2.1.3.1h.8c.1 0 .2-.1.3-.1.1 0 .2-.1.3-.2.1-.1.2-.1.3-.2.1-.1.2-.2.2-.3.1-.1.1-.2.2-.3 0-.1.1-.2.1-.3v-.8c-.1-.1-.2-.2-.2-.3zm-26.4-11.2c0 .1.1.2.2.3.1.1.1.2.2.3.1.1.2.2.3.2.1.1.2.1.3.2.1 0 .2.1.3.1h.8c.1 0 .2-.1.3-.1.1 0 .2-.1.3-.2.1-.1.2-.1.3-.2.1-.1.2-.2.2-.3.1-.1.1-.2.2-.3 0-.1.1-.2.1-.3v-.8c0-.1-.1-.2-.1-.3 0-.1-.1-.2-.2-.3-.1-.1-.1-.2-.2-.3-.1-.1-.2-.2-.3-.2-.1-.1-.2-.1-.3-.2-.1 0-.2-.1-.3-.1h-.7c-.1 0-.2.1-.3.1-.1 0-.2.1-.3.2-.1.1-.2.1-.3.2-.1.1-.2.2-.2.3-.1.1-.1.2-.2.3 0 .1-.1.2-.1.3v.8c0 .2-.1.2 0 .3z"/><path d="M459.4 244.1h-76.9c-4.2 0-7.6 3.4-7.6 7.6v56.8c0 4.2 3.4 7.6 7.6 7.6H405l-1.7 12.8h-3.9c-1 0-1.8.8-1.8 1.8s.8 1.8 1.8 1.8h43.1c1 0 1.8-.8 1.8-1.8s-.8-1.8-1.8-1.8h-3.9l-1.7-12.8h22.5c4.2 0 7.6-3.4 7.6-7.6v-56.8c-.1-4.2-3.4-7.6-7.6-7.6zm-45.2 4.2c.4.4.6.8.6 1.3v1.7c0 .8.6 1.5 1.3 1.7 1.2.3 2.3.8 3.4 1.4.7.4 1.6.3 2.2-.3l1.2-1.2c.7-.7 2-.7 2.7 0 .2.2.4.4.5.7.2.7.1 1.5-.5 2l-1.2 1.2c-.6.6-.7 1.5-.3 2.2.6 1 1.1 2.2 1.4 3.4.2.8.9 1.3 1.7 1.3h1.7c.6 0 1.2.3 1.5.7-.3.6-.5 1.3-.5 2l-.6.3c-.8-.8-1.9-1.3-3.1-1.3-1.2 0-2.3.5-3.2 1.3-1.7 1.7-1.8 4.5 0 6.3l-.3.6c-1.2 0-2.3.5-3.1 1.3-.7.7-1.1 1.5-1.3 2.4-.7.3-1.4.6-2.2.8-.8.2-1.3.9-1.3 1.7v1.7c0 1.1-.9 1.9-1.9 1.9-.5 0-1-.2-1.3-.6-.4-.4-.6-.8-.6-1.3V280c0-.8-.6-1.5-1.3-1.7-1.2-.3-2.3-.8-3.4-1.4-.3-.2-.6-.3-.9-.3-.5 0-.9.2-1.3.5l-1.2 1.2c-.7.7-1.9.7-2.7 0-.7-.7-.7-2 0-2.7l1.2-1.2c.6-.6.7-1.5.3-2.2-.6-1-1.1-2.2-1.4-3.4-.2-.8-.9-1.3-1.7-1.3h-1.7c-1.1 0-1.9-.9-1.9-1.9 0-.5.2-1 .6-1.3.4-.4.8-.6 1.3-.6h1.7c.8 0 1.5-.6 1.7-1.3.3-1.2.8-2.3 1.4-3.4.4-.7.3-1.6-.3-2.2l-1.2-1.2c-.5-.5-.7-1.3-.5-2 .1-.3.2-.5.5-.7.7-.7 2-.7 2.7 0l1.2 1.2c.6.6 1.5.7 2.2.3 1-.6 2.2-1.1 3.4-1.4.8-.2 1.3-.9 1.3-1.7v-1.7c0-1.1.9-1.9 1.9-1.9.4 0 .9.2 1.3.6zm17.9 21.2c.8-.2 1.3-.9 1.3-1.7v-1.2c0-.2.1-.5.3-.6.1-.1.3-.3.6-.3.2 0 .5.1.6.3.2.2.3.4.3.6v1.2c0 .8.6 1.5 1.3 1.7.8.2 1.6.5 2.3 1 .7.4 1.6.3 2.2-.3l.9-.9c.4-.4.9-.4 1.3 0 .2.2.3.5.3.6 0 .1 0 .4-.3.6l-.9.9c-.6.6-.7 1.5-.3 2.2.4.7.7 1.5 1 2.3.2.8.9 1.3 1.7 1.3h1.2c.5 0 .9.4.9.9 0 .2-.1.5-.3.6-.1.1-.3.3-.6.3h-1.2c-.8 0-1.5.6-1.7 1.3-.2.8-.5 1.6-1 2.3-.4.7-.3 1.6.3 2.2l.9.9c.4.4.4.9 0 1.3-.2.2-.5.3-.6.3s-.4 0-.6-.3l-.9-.9c-.6-.6-1.5-.7-2.2-.3-.7.4-1.5.7-2.3 1-.8.2-1.3.9-1.3 1.7v1.2c0 .5-.4.9-.9.9-.3 0-.5-.2-.6-.3-.2-.2-.3-.4-.3-.6v-1.2c0-.8-.6-1.5-1.3-1.7-.8-.2-1.6-.5-2.3-1-.7-.4-1.6-.3-2.2.3l-.9.9c-.4.4-.9.4-1.3 0-.2-.2-.3-.5-.3-.6s0-.4.3-.6l.9-.9c.6-.6.7-1.5.3-2.2-.4-.7-.7-1.5-1-2.3-.2-.8-.9-1.3-1.7-1.3h-1.2c-.4 0-.8-.3-.9-.8v-.1c0-.2.1-.5.3-.6.2-.2.4-.3.6-.3h1.2c.8 0 1.5-.6 1.7-1.3.2-.8.5-1.6 1-2.3.4-.7.3-1.6-.3-2.2l-.9-.9c-.4-.4-.4-.9 0-1.3.2-.2.5-.3.6-.3.1 0 .4 0 .6.3l.9.9c.6.6 1.5.7 2.2.3.7-.4 1.5-.7 2.3-1zm-49.6-21.8h25.2c-.2.6-.3 1.2-.3 1.9v.4c-.6.2-1.1.4-1.7.7l-.3-.3c-2.1-2.1-5.6-2.1-7.8 0-.3.3-.5.6-.7.9h-10.7c-2.1 0-3.8 1.7-3.8 3.8v39.1c0 2.1 1.7 3.8 3.8 3.8h4.4c1 0 1.8-.8 1.8-1.8s-.8-1.8-1.8-1.8h-4.4c-.1 0-.2-.1-.2-.2v-39.1c0-.1.1-.2.2-.2h9.9c.1 1.2.7 2.4 1.6 3.3l.3.3c-.3.6-.5 1.1-.7 1.7h-.4c-1.5 0-2.9.6-3.9 1.6s-1.6 2.4-1.6 3.9c0 3 2.5 5.5 5.5 5.5h.4c.2.6.4 1.1.7 1.7l-.3.3c-2.1 2.1-2.1 5.6 0 7.8 2.1 2.1 5.6 2.1 7.8 0l.3-.3c.6.3 1.1.5 1.7.7v.4c0 1.5.6 2.9 1.6 3.9s2.4 1.6 3.9 1.6c3 0 5.5-2.5 5.5-5.5v-.4l.9-.3c.8 1 2.1 1.7 3.5 1.7l.3.6c-.8.8-1.3 1.9-1.3 3.1 0 1.2.5 2.3 1.3 3.2 1.7 1.7 4.5 1.8 6.3.1l.6.3c0 1.2.5 2.3 1.3 3.1.8.9 2 1.3 3.2 1.3 2.5 0 4.5-2 4.5-4.4l.6-.3c.8.8 1.9 1.3 3.1 1.3 1.2 0 2.3-.5 3.2-1.3 1.7-1.7 1.8-4.5.1-6.3l.3-.6c1.2 0 2.3-.5 3.1-1.3.9-.8 1.3-2 1.3-3.2 0-2.5-2-4.5-4.4-4.5l-.3-.6c.8-.8 1.3-1.9 1.3-3.1 0-1.2-.5-2.3-1.3-3.2-1.7-1.7-4.5-1.8-6.3-.1l-.6-.3c0-1.2-.5-2.3-1.3-3.1-.8-.9-2-1.3-3.2-1.3-.4 0-.8.1-1.2.2-1-1.3-2.6-2.1-4.3-2.1h-.4c-.2-.6-.4-1.1-.7-1.7l.3-.3c.9-.9 1.4-2.1 1.6-3.3h26c.1 0 .2.1.2.2v39.1c0 .1-.1.2-.2.2h-50.7c-1 0-1.8.8-1.8 1.8s.8 1.8 1.8 1.8H456c2.1 0 3.8-1.7 3.8-3.8v-39.1c0-2.1-1.7-3.8-3.8-3.8h-26.9c-.2-.3-.4-.6-.7-.9-2.1-2.1-5.6-2.1-7.8 0l-.3.3c-.6-.3-1.1-.5-1.7-.7v-.4c0-.7-.1-1.3-.3-1.9h41.4c2.2 0 4 1.8 4 4v49.9h-84.8v-49.9c-.4-2.3 1.4-4.1 3.6-4.1zm52.4 81h-28.1l1.7-12.8h24.6l1.8 12.8zm24.5-16.3h-76.9c-2.2 0-4-1.8-4-4v-3.2h84.8v3.2c.1 2.2-1.7 4-3.9 4z"/></svg>