<svg width="21" height="21" viewBox="0 0 51 85" fill="#ffffff" xmlns="http://www.w3.org/2000/svg">
<path fill-rule="evenodd" clip-rule="evenodd" d="M43.7143 0.0386362L7.28571 0C3.27857 0 0 3.47727 0 7.72727V77.2727C0 81.5227 3.27857 85 7.28571 85H43.7143C47.7214 85 51 81.5227 51 77.2727V7.72727C51 3.47727 47.7214 0.0386362 43.7143 0.0386362ZM43.7143 69.5455H7.28571V15.4545H43.7143V69.5455ZM27.875 78.5C27.875 79.8807 26.7557 81 25.375 81C23.9943 81 22.875 79.8807 22.875 78.5C22.875 77.1193 23.9943 76 25.375 76C26.7557 76 27.875 77.1193 27.875 78.5ZM15 10H35V9H15V10Z" fill="black"/>
</svg>
