<?xml version="1.0" encoding="utf-8"?>
<!-- Generator: Adobe Illustrator 17.0.0, SVG Export Plug-In . SVG Version: 6.00 Build 0)  -->
<!DOCTYPE svg PUBLIC "-//W3C//DTD SVG 1.1//EN" "http://www.w3.org/Graphics/SVG/1.1/DTD/svg11.dtd">
<svg version="1.1" id="Слой_1" xmlns="http://www.w3.org/2000/svg" xmlns:xlink="http://www.w3.org/1999/xlink" x="0px" y="0px"
	 width="283.46px" height="87.874px" viewBox="0 0 283.46 87.874" enable-background="new 0 0 283.46 87.874" xml:space="preserve">
<g>
	<polygon fill-rule="evenodd" clip-rule="evenodd" fill="#010101" points="125.862,44.342 116.908,69.557 108.78,69.557 
		125.963,25.19 143.552,69.557 135.052,69.557 125.862,44.342 	"/>
	<path fill-rule="evenodd" clip-rule="evenodd" fill="#010101" d="M206.702,49.577l-4.678,19.98h-7.681l7.471-30.649
		c1.587,3.486,3.18,7.005,4.88,10.651L206.702,49.577L206.702,49.577z"/>
	<path fill-rule="evenodd" clip-rule="evenodd" fill="#010101" d="M229.424,69.557l-4.388-19.946
		c1.698-3.618,3.38-7.251,4.849-10.485l7.214,30.431H229.424L229.424,69.557z"/>
	<path fill-rule="evenodd" clip-rule="evenodd" fill="#010101" d="M84.634,32.974c-3.892,0-7.163,1.353-9.814,4.059
		c-2.652,2.706-3.977,6.145-3.977,10.318c0,4.649,1.669,8.327,5.007,11.033c2.594,2.115,5.57,3.172,8.927,3.172
		c3.796,0,7.029-1.372,9.699-4.116c2.671-2.744,4.006-6.126,4.006-10.147c0-4.002-1.345-7.389-4.035-10.161
		C91.758,34.361,88.487,32.974,84.634,32.974L84.634,32.974z M84.72,25.142c5.949,0,11.063,2.154,15.344,6.46
		c4.281,4.307,6.421,9.557,6.421,15.749c0,6.136-2.112,11.328-6.335,15.577c-4.223,4.25-9.347,6.374-15.373,6.374
		c-6.311,0-11.554-2.182-15.73-6.546c-4.175-4.364-6.264-9.547-6.264-15.549c0-4.021,0.972-7.717,2.918-11.09
		c1.945-3.373,4.619-6.045,8.023-8.018C77.126,26.129,80.792,25.142,84.72,25.142L84.72,25.142z"/>
	<polygon fill-rule="evenodd" clip-rule="evenodd" fill="#010101" points="248.779,28.626 248.779,28.626 248.779,69.557 
		257.217,69.557 257.217,37.066 271.064,37.066 271.064,69.557 279.497,69.557 279.497,28.626 248.779,28.626 	"/>
	<polygon fill-rule="evenodd" clip-rule="evenodd" fill="#010101" points="161.916,50.396 161.916,28.626 153.556,28.626 
		153.556,69.557 161.916,69.557 161.916,60.79 175.163,46.574 175.163,69.557 183.594,69.557 183.594,27.201 161.916,50.396 	"/>
	<path fill-rule="evenodd" clip-rule="evenodd" fill="#010101" d="M215.52,41.947c-3.149-2.92-9.868-8.982-14.322-13.186
		c2.453,5.152,4.629,10.118,7.119,15.457l7.248,15.757c0.92-0.801,14.691-30.089,14.679-31.349
		C227.722,30.276,218.327,40.11,215.52,41.947L215.52,41.947z"/>
	<path fill-rule="evenodd" clip-rule="evenodd" fill="#E41E26" d="M22.307,55.629C18.024,51.657,8.883,43.41,2.823,37.691
		c3.337,7.008,6.297,13.765,9.685,21.028l9.86,21.435c1.251-1.089,19.985-40.932,19.969-42.646
		C38.906,39.752,26.74,51.347,22.307,55.629L22.307,55.629z"/>
	<path fill-rule="evenodd" clip-rule="evenodd" fill="#E41E26" d="M22.615,4.871c-2.199,3.815-7.947,18.68-8.333,19.122
		l-2.455-6.448c-0.269,4.531-5.424,11.278-8.087,17.52c6.45,5.997,14.473,13.25,18.545,17.027
		c3.946-3.811,13.403-12.835,18.972-17.559c-2.719-6.091-7.592-12.585-7.854-16.988l-2.455,6.448
		C30.787,23.808,24.163,7.812,22.615,4.871L22.615,4.871z"/>
	
</g>
</svg>
