<svg xmlns="http://www.w3.org/2000/svg" width="94" height="94" viewBox="373.9 250.6 94 94"><path d="M420.1 330.1c-.3-.3-.8-.5-1.3-.5s-1 .2-1.3.5c-.3.3-.5.8-.5 1.3s.2 1 .5 1.3c.3.3.8.5 1.3.5s1-.2 1.3-.5c.3-.3.5-.8.5-1.3s-.2-1-.5-1.3z"/><path d="M428.8 313.2v-13.5c0-.6-.3-1.2-.8-1.5-.5-.3-1.1-.4-1.7-.2l-31.6 12.7h-10.2c-5.8 0-10.5 4.7-10.5 10.5s4.7 10.5 10.5 10.5h1.2v11c0 1 .8 1.8 1.8 1.8h7.5c1 0 1.8-.8 1.8-1.8v-10.1l29.4 11.8c.2.1.5.1.7.1.4 0 .7-.1 1-.3.5-.3.8-.9.8-1.5v-13.5c3.7-.8 6.4-4.1 6.4-8.1.2-3.8-2.6-7.1-6.3-7.9zM393.2 341h-3.8v-9.2h3.8v9.2zm0-12.9h-8.7c-3.8 0-6.9-3.1-6.9-6.9 0-3.8 3.1-6.9 6.9-6.9h8.7v13.8zm32 12l-28.3-11.4v-14.9l20.1-8.1v18.2c0 1 .8 1.8 1.8 1.8s1.8-.8 1.8-1.8v-19.7l4.5-1.8v37.7zm3.6-14.7V317c1.6.7 2.8 2.3 2.8 4.2 0 1.9-1.1 3.5-2.8 4.2zm24-6h-10.4c-1 0-1.8.8-1.8 1.8s.8 1.8 1.8 1.8h10.4c1 0 1.8-.8 1.8-1.8s-.8-1.8-1.8-1.8zm-8.5-13.4c-.7-.7-1.9-.7-2.6 0l-3.6 3.6c-.7.7-.7 1.9 0 2.6.4.4.8.5 1.3.5s.9-.2 1.3-.5l3.6-3.6c.7-.7.7-1.9 0-2.6zm.1 27.8l-3.7-3.7c-.7-.7-1.9-.7-2.6 0-.7.7-.7 1.9 0 2.6l3.7 3.7c.4.4.8.5 1.3.5s.9-.2 1.3-.5c.7-.7.7-1.9 0-2.6z"/><path d="M460.6 250.6h-34.1c-4 0-7.3 3.3-7.3 7.3v.7h-30.8c-2.4 0-4.4 2-4.4 4.4v29c0 2.4 2 4.4 4.4 4.4h1.9v5.6c0 .7.4 1.4 1.1 1.7.2.1.5.1.7.1.5 0 .9-.2 1.3-.5l6.9-6.9h36.5c2.4 0 4.4-2 4.4-4.4v-5.5h19.5c4 0 7.3-3.3 7.3-7.3V258c-.1-4.1-3.3-7.4-7.4-7.4zm-23.2 41.5c0 .4-.3.7-.7.7h-37.2c-.5 0-1 .2-1.3.5l-4.3 4.3v-3c0-1-.8-1.8-1.8-1.8h-3.7c-.4 0-.7-.3-.7-.7v-29c0-.4.3-.7.7-.7h30.8v16.9c0 4 3.3 7.3 7.3 7.3h11v5.5zm26.9-12.8c0 2-1.6 3.7-3.7 3.7h-34.1c-2 0-3.7-1.6-3.7-3.7V258c0-2 1.6-3.7 3.7-3.7h34.1c2 0 3.7 1.6 3.7 3.7v21.3z"/><path d="M450.9 267l-12.6-7.3c-.6-.3-1.3-.3-1.8 0-.6.3-.9.9-.9 1.6v14.5c0 .7.3 1.3.9 1.6.3.2.6.2.9.2.3 0 .6-.1.9-.2l12.6-7.3c.6-.3.9-.9.9-1.6 0-.5-.3-1.1-.9-1.5zm-11.6 5.7v-8.1l7.1 4.1-7.1 4zm-26-2.8H395c-1 0-1.8.8-1.8 1.8s.8 1.8 1.8 1.8h18.4c1 0 1.8-.8 1.8-1.8s-.9-1.8-1.9-1.8zm1.3 10.8c-.3-.3-.8-.5-1.3-.5s-1 .2-1.3.5c-.3.3-.5.8-.5 1.3s.2 1 .5 1.3c.3.3.8.5 1.3.5s1-.2 1.3-.5c.3-.3.5-.8.5-1.3.1-.4-.1-.9-.5-1.3zm-8.2-.5H395c-1 0-1.8.8-1.8 1.8s.8 1.8 1.8 1.8h11.5c1 0 1.8-.8 1.8-1.8s-.8-1.8-1.9-1.8z"/></svg>