<svg xmlns="http://www.w3.org/2000/svg" width="17" height="11.97" viewBox="0 0 17 11.97"><defs><style>.cls-1{fill:#315d9b;fill-rule:evenodd}</style></defs><path id="Фигура_11_копия_6" data-name="Фигура 11 копия 6" class="cls-1" d="M1064 1411.79a51.892 51.892 0 0 1 5.51-5.38 1.369 1.369 0 0 0-1.78-2.08 50.89 50.89 0 0 0-3.73 3.47l-.73.75q-1.95 2.085-3.68 4.33l-.14.15-.16-.14c-1.53-1.24-2.9-2.73-5-2.76-1.56-.02-1.79 2.37-.23 2.4 1.97.03 3.45 2.21 4.96 3.24a1.3 1.3 0 0 0 1.75-.3c.83-.96 1.66-1.92 2.5-2.87z" transform="translate(-1053 -1404.03)"/></svg>