<svg xmlns="http://www.w3.org/2000/svg" width="47" height="47" viewBox="397.4 274.1 47 47"><path d="M439.9 278.2h-4.4v-1.3c0-1.5-1.2-2.8-2.8-2.8-1.5 0-2.8 1.2-2.8 2.8v1.3h-15.4v-1.3c0-1.5-1.2-2.8-2.8-2.8-1.5 0-2.8 1.2-2.8 2.8v1.3H405c-2.5 0-4.6 2.1-4.6 4.6v15.6c0 .5.4.9.9.9s.9-.4.9-.9v-10.8h33.1c.5 0 .9-.4.9-.9s-.4-.9-.9-.9h-33.1v-3c0-1.5 1.2-2.8 2.8-2.8h3.9v1.2c0 1.5 1.2 2.8 2.8 2.8 1.5 0 2.8-1.2 2.8-2.8V280H430v1.1c0 1.5 1.2 2.8 2.8 2.8 1.5 0 2.8-1.2 2.8-2.8V280h4.4c1.5 0 2.8 1.2 2.8 2.8v34.9c0 .9-.7 1.7-1.7 1.7-.9 0-1.7-.7-1.7-1.7v-2.4c0-.5-.4-.9-.9-.9h-10.7c-.5 0-.9.4-.9.9s.4.9.9.9h9.8v1.5c0 .6.2 1.2.4 1.7h-37c-.9 0-1.7-.7-1.7-1.7v-1.5h20.5c.5 0 .9-.4.9-.9s-.4-.9-.9-.9h-9.2c1.6-1.4 2.6-3.4 2.6-5.7 0-4.2-3.4-7.5-7.5-7.5s-7.5 3.4-7.5 7.5c0 2.3 1 4.3 2.6 5.7h-2.5c-.5 0-.9.4-.9.9v2.4c0 1.9 1.6 3.5 3.5 3.5h40c1.9 0 3.5-1.6 3.5-3.5v-34.9c0-2.6-2-4.6-4.5-4.6zm-27.2 3c0 .5-.4.9-.9.9s-.9-.4-.9-.9v-4.3c0-.5.4-.9.9-.9s.9.4.9.9v4.3zm20.9 0c0 .5-.4.9-.9.9s-.9-.4-.9-.9v-4.3c0-.5.4-.9.9-.9s.9.4.9.9v4.3zm-33.5 27.5c0-3.1 2.6-5.7 5.7-5.7s5.7 2.6 5.7 5.7-2.6 5.7-5.7 5.7c-3.2-.1-5.7-2.6-5.7-5.7z"/><path d="M440.4 286.1c-.2-.2-.4-.3-.6-.3-.2 0-.5.1-.6.3-.2.2-.3.4-.3.6s.1.5.3.6c.2.2.4.3.6.3.2 0 .5-.1.6-.3.2-.2.3-.4.3-.6s-.1-.5-.3-.6zm-15.5 28.5c-.2-.2-.4-.3-.6-.3s-.5.1-.6.3c-.2.2-.3.4-.3.6 0 .2.1.5.3.6.2.2.4.3.6.3s.5-.1.6-.3c.2-.2.3-.4.3-.6s-.2-.4-.3-.6zm-6.7-12.6c-1.9 0-3.5 1.6-3.5 3.5s1.6 3.5 3.5 3.5 3.5-1.6 3.5-3.5-1.6-3.5-3.5-3.5zm0 5.2c-.9 0-1.7-.7-1.7-1.7s.7-1.7 1.7-1.7 1.7.7 1.7 1.7-.8 1.7-1.7 1.7zm8.6-5.2c-1.9 0-3.5 1.6-3.5 3.5s1.6 3.5 3.5 3.5 3.5-1.6 3.5-3.5-1.6-3.5-3.5-3.5zm0 5.2c-.9 0-1.7-.7-1.7-1.7s.7-1.7 1.7-1.7c.9 0 1.7.7 1.7 1.7s-.8 1.7-1.7 1.7zm8.5-5.2c-1.9 0-3.5 1.6-3.5 3.5s1.6 3.5 3.5 3.5 3.5-1.6 3.5-3.5-1.5-3.5-3.5-3.5zm0 5.2c-.9 0-1.7-.7-1.7-1.7s.7-1.7 1.7-1.7c.9 0 1.7.7 1.7 1.7s-.7 1.7-1.7 1.7zm-25.7-14.7c-1.9 0-3.5 1.6-3.5 3.5s1.6 3.5 3.5 3.5 3.5-1.6 3.5-3.5-1.5-3.5-3.5-3.5zm0 5.1c-.9 0-1.7-.7-1.7-1.7s.7-1.7 1.7-1.7c.9 0 1.7.7 1.7 1.7s-.7 1.7-1.7 1.7zm17.2-5.1c-1.9 0-3.5 1.6-3.5 3.5s1.6 3.5 3.5 3.5 3.5-1.6 3.5-3.5-1.6-3.5-3.5-3.5zm0 5.1c-.9 0-1.7-.7-1.7-1.7s.7-1.7 1.7-1.7c.9 0 1.7.7 1.7 1.7s-.8 1.7-1.7 1.7zm8.5-5.1c-1.9 0-3.5 1.6-3.5 3.5s1.6 3.5 3.5 3.5 3.5-1.6 3.5-3.5-1.5-3.5-3.5-3.5zm0 5.1c-.9 0-1.7-.7-1.7-1.7s.7-1.7 1.7-1.7c.9 0 1.7.7 1.7 1.7s-.7 1.7-1.7 1.7zm-17.1-5.1c-1.9 0-3.5 1.6-3.5 3.5s1.6 3.5 3.5 3.5 3.5-1.6 3.5-3.5-1.6-3.5-3.5-3.5zm0 5.1c-.9 0-1.7-.7-1.7-1.7s.7-1.7 1.7-1.7 1.7.7 1.7 1.7-.8 1.7-1.7 1.7zm-9.2 8.8c-.4-.4-.9-.4-1.3 0l-3 3-1-1c-.4-.4-.9-.4-1.3 0s-.4.9 0 1.3l1.7 1.7c.2.2.4.3.6.3s.5-.1.6-.3l3.6-3.6c.5-.4.5-1 .1-1.4z"/></svg>