<?xml version="1.0" encoding="utf-8"?>
<!-- Generator: Adobe Illustrator 17.1.0, SVG Export Plug-In . SVG Version: 6.00 Build 0)  -->
<!DOCTYPE svg PUBLIC "-//W3C//DTD SVG 1.1//EN" "http://www.w3.org/Graphics/SVG/1.1/DTD/svg11.dtd">
<svg fill="#000" version="1.1" id="Слой_1" xmlns="http://www.w3.org/2000/svg" xmlns:xlink="http://www.w3.org/1999/xlink" x="0px" y="0px"
	 viewBox="240.3 240.5 31 31" enable-background="new 240.3 240.5 31 31" xml:space="preserve">
<g id="Page-1">
	<g id="_x30_35---Creative-Thinking">
		<path id="Shape" d="M267.1,263.2c0.2-0.9,0.2-1.8,0-2.6l2.4-5.7c0,0,0,0,0,0c0.4-1.1,0.9-2,1.7-2.9c0.2-0.2,0.2-0.5,0.2-0.7
			l-1-4.2c0,0,0-0.1-0.1-0.1c0,0,0,0,0,0c0,0,0,0,0,0c0,0,0-0.1-0.1-0.1c0,0,0,0-0.1,0c0,0-0.1,0-0.1,0c0,0-0.1,0-0.1,0c0,0,0,0,0,0
			c-0.1,0-0.2,0-0.3,0.1c0,0,0,0,0,0h0l-3.7,2.3c-0.2,0.1-0.4,0.4-0.4,0.6c-0.1,1.1-0.4,2.2-0.9,3.2v0l-1.2,2.9
			c-0.6-0.3-1.2-0.5-1.8-0.7c0.2-1.7,0.3-3.4,0.3-5.1c1-1.2,1.4-2.6,1.3-4.1c-0.3-3-3-5.2-3.2-5.3c-0.2-0.1-0.4-0.1-0.6,0
			c-0.2,0.1-0.3,0.4-0.2,0.6c0.3,1,0,2.1-1.9,4.2c-0.9,0.9-1.2,2.2-0.7,3.3c0.2,0.4,0.4,0.8,0.7,1.2c-0.1,0.8-0.2,1.6-0.3,2.3
			c-0.1,1.2-0.1,2.4-0.1,3.7c-0.5,0.3-0.9,0.6-1.3,0.9l-2.5-10.7c0,0,0,0,0,0c0,0,0-0.1,0-0.1l-2.6-4.7c-0.3-0.5-0.8-0.7-1.3-0.6
			c-0.5,0.1-0.9,0.6-0.9,1.1l-0.2,5.4c0,0,0,0.1,0,0.1c0,0,0,0,0,0l2.6,10.9c-0.4,0-0.8,0.1-1.2,0.2l-2.8-6.8
			c-0.2-0.5-0.8-0.8-1.3-0.6l-4.3,1.8c-0.5,0.2-0.8,0.8-0.6,1.4l3.8,9.2c-2.2,0.1-4,2-3.9,4.2c0.1,2.2,1.9,4,4.1,4h22.8
			c1.5,0,2.8-0.8,3.6-2.1s0.7-2.9-0.1-4.1S268.6,263.2,267.1,263.2z M266.6,249.9l2.2-1.4l-0.8,1.9c-0.1,0.3,0,0.6,0.3,0.7
			s0.6,0,0.7-0.3l0.8-1.9l0.6,2.5c-0.6,0.8-1.1,1.6-1.5,2.5c-0.5,0.2-1.2,0.3-1.7,0c-0.5-0.2-1-0.7-1.2-1.2
			C266.2,251.8,266.5,250.8,266.6,249.9z M265.4,253.9c0.3,0.4,0.8,0.7,1.3,0.9c0.4,0.2,0.8,0.3,1.3,0.3c0.1,0,0.2,0,0.3,0l-1.7,4
			c-0.5-1.1-1.3-2-2.2-2.7L265.4,253.9z M258.3,250.2l2.6,0.2c0,0.5,0,1,0,1.5c-0.9,0.1-1.7,0-2.6-0.1c-0.1,0-0.1,0-0.2,0
			C258.2,251.2,258.2,250.7,258.3,250.2L258.3,250.2z M258,246.1c1.4-1.5,2.1-2.7,2.3-3.8c1,1,1.6,2.3,1.9,3.7
			c0.1,1.2-0.3,2.4-1,3.4c-1-0.1-2-0.1-3-0.2c-0.4-0.4-0.7-1-0.7-1.5C257.4,247,257.6,246.5,258,246.1L258,246.1z M258,252.7l0.2,0
			c0.7,0.1,1.3,0.2,2,0.2c0.2,0,0.4,0,0.7,0c0,0.7-0.1,1.4-0.2,2.1c-0.1,0-0.3,0-0.4,0c-0.8,0-1.6,0.1-2.3,0.4
			C257.9,254.5,257.9,253.6,258,252.7L258,252.7z M254,258.8l-1.5-6.3c-0.1-0.3-0.3-0.4-0.6-0.4c-0.3,0.1-0.4,0.3-0.4,0.6l1.3,5.7
			c-0.4-0.1-0.7-0.2-1.1-0.3l-2.3-9.7c0.3,0.1,0.7,0.2,1,0.2c0,0,0.1,0,0.1,0l0.4,1.6c0,0.2,0.2,0.3,0.4,0.4s0.4,0,0.5-0.1
			c0.1-0.1,0.2-0.3,0.1-0.5l-0.4-1.6c0.4-0.2,0.7-0.4,0.9-0.7l2.3,9.9C254.5,258,254.2,258.4,254,258.8z M250.8,247.6
			c-0.7,0.1-1.3-0.1-1.7-0.7l0.1-1.8c0.2,0,0.4,0.1,0.5,0.1c0.2,0,0.4,0,0.5-0.1c0.3-0.1,0.7-0.3,1-0.5l0.9,1.6
			C252,246.9,251.5,247.4,250.8,247.6L250.8,247.6z M249.4,241.5c0.1,0,0.1,0,0.2,0.1l1.1,2.1c-0.2,0.2-0.4,0.3-0.7,0.4
			c-0.3,0-0.5,0-0.8,0l0.1-2.3C249.3,241.6,249.4,241.5,249.4,241.5z M245.7,251.9l0.4,1l-1.9,0.8c-0.2,0.1-0.4,0.3-0.3,0.6
			c0,0.2,0.3,0.4,0.5,0.4c0.1,0,0.1,0,0.2,0l1.9-0.8l0.4,1l-1,0.4c-0.2,0.1-0.4,0.3-0.3,0.6c0,0.2,0.3,0.4,0.5,0.4
			c0.1,0,0.1,0,0.2,0l1-0.4l0.4,1l-1.9,0.8c-0.2,0.1-0.4,0.3-0.3,0.6c0,0.2,0.3,0.4,0.5,0.4c0.1,0,0.1,0,0.2,0l1.9-0.8l0.4,1
			c-1.7,0.8-2.9,2.3-3.3,4.1l-3.7-9L245.7,251.9z M267.2,270.5h-22.8c-1.7,0-3.1-1.4-3.1-3.1c0-1.7,1.4-3.1,3.1-3.1
			c0.3,0,0.6,0,0.9,0.1c0.2,0,0.3,0,0.5-0.1c0.1-0.1,0.2-0.2,0.2-0.4c0-1.8,1.1-3.5,2.8-4.3c1.7-0.8,3.6-0.6,5.1,0.5
			c0.1,0.1,0.3,0.1,0.5,0.1c0.2,0,0.3-0.2,0.3-0.3c1-2.7,3.8-4.3,6.6-3.8c2.8,0.5,4.9,3,4.9,5.9c0,0.6-0.1,1.2-0.3,1.7
			c-0.1,0.2,0,0.4,0.1,0.5c0.1,0.1,0.3,0.2,0.5,0.2c0.2,0,0.5-0.1,0.7-0.1c1.7,0,3.1,1.4,3.1,3.1
			C270.3,269.1,268.9,270.5,267.2,270.5z"/>
		<path id="Shape_1_" d="M260.3,248.6c0.2,0,0.3-0.1,0.4-0.2c0.6-0.9,0.9-2,0.7-3c0-0.2-0.2-0.3-0.4-0.4s-0.4,0-0.5,0.1
			c-0.1,0.1-0.2,0.3-0.1,0.5c0.1,0.8-0.1,1.5-0.5,2.2c-0.1,0.2-0.1,0.4,0,0.5S260.1,248.6,260.3,248.6L260.3,248.6z"/>
		<path id="Shape_2_" d="M259.6,264.3c-0.4,0-0.8,0.1-1.1,0.3c-0.9-1.3-2.7-1.6-4-0.9c-1.4,0.8-1.9,2.5-1.3,3.9
			c0.1,0.2,0.3,0.3,0.5,0.3c0.1,0,0.1,0,0.2,0c0.1-0.1,0.2-0.2,0.3-0.3c0.1-0.1,0-0.3,0-0.4c-0.1-0.3-0.2-0.5-0.2-0.8
			c0-1.1,0.9-2.1,2.1-2.1c0.8,0,1.5,0.5,1.9,1.2c0,0,0,0,0,0c0,0,0,0,0,0.1c0,0,0,0,0,0c0,0,0.1,0,0.1,0.1c0,0,0.1,0,0.1,0.1
			c0,0,0.1,0,0.1,0c0,0,0.1,0,0.1,0c0.1,0,0.1,0,0.2,0c0,0,0,0,0,0c0,0,0,0,0,0c0,0,0,0,0.1,0c0.3-0.2,0.6-0.3,1-0.3
			c0.6,0,1.2,0.4,1.4,0.9c0.1,0.3,0.4,0.4,0.7,0.3c0.3-0.1,0.4-0.4,0.3-0.7C261.6,264.9,260.7,264.3,259.6,264.3z"/>
		<path id="Shape_3_" d="M249.5,260.7c-0.1,0-1.9,0.7-1.9,2.6c0,0.3,0.2,0.5,0.5,0.5s0.5-0.2,0.5-0.5c0-0.7,0.5-1.3,1.2-1.6
			c0.3-0.1,0.4-0.4,0.3-0.7C250,260.7,249.7,260.6,249.5,260.7L249.5,260.7z"/>
		<path id="Shape_4_" d="M256.7,260.1c0,0,0.1,0,0.1,0c0.2,0,0.4-0.2,0.5-0.4c0.2-1,1.1-1.7,2.1-1.7c0.3,0,0.5-0.2,0.5-0.5
			c0-0.3-0.2-0.5-0.5-0.5c-1.5,0-2.7,1-3.1,2.5C256.3,259.8,256.5,260.1,256.7,260.1z"/>
	</g>
</g>
</svg>
