<svg xmlns="http://www.w3.org/2000/svg" width="40" height="51.7" viewBox="172 222.2 40 51.7"><path d="M211.2 228.8c-6.4 0-12.4-2-17.6-5.7l-1.1-.8c-.3-.2-.7-.2-1 0l-1.1.8c-5.1 3.7-11.2 5.7-17.6 5.7-.5 0-.8.4-.8.8v15.8c0 11.5 6.7 22.1 17.1 27.1l2.6 1.2c.1.1.2.1.4.1s.2 0 .4-.1l2.6-1.2c10.4-5 17.1-15.6 17.1-27.1v-15.8c-.2-.4-.6-.8-1-.8zm-.9 16.7c0 10.8-6.3 20.9-16.1 25.6l-2.2 1.1-2.2-1.1c-9.8-4.7-16.1-14.7-16.1-25.6v-15c6.4-.2 12.5-2.2 17.7-6l.6-.4.6.4c5.2 3.8 11.3 5.9 17.7 6v15z"/><path d="M184.5 243.8v4.2h-.8c-.5 0-.8.4-.8.8v11.7c0 .5.4.8.8.8h16.7c.5 0 .8-.4.8-.8v-11.7c0-.5-.4-.8-.8-.8h-.8v-4.2c0-4.1-3.4-7.5-7.5-7.5s-7.6 3.4-7.6 7.5zm0 15.9v-4.2h3.3v-1.7h-3.3v-4.2h15v4.2h-3.3v1.7h3.3v4.2h-15zm10-11.7h-5v-4.2c0-1.4 1.1-2.5 2.5-2.5s2.5 1.1 2.5 2.5v4.2zm3.3-4.2v4.2h-1.7v-4.2c0-2.3-1.9-4.2-4.2-4.2-2.3 0-4.2 1.9-4.2 4.2v4.2H186v-4.2c0-3.2 2.6-5.8 5.8-5.8 3.4 0 6 2.6 6 5.8z"/><path d="M192 252.2c-1.4 0-2.5 1.1-2.5 2.5s1.1 2.5 2.5 2.5 2.5-1.1 2.5-2.5-1.1-2.5-2.5-2.5zm0 3.3c-.5 0-.8-.4-.8-.8 0-.5.4-.8.8-.8.5 0 .8.4.8.8s-.3.8-.8.8zm-.8-25h1.7v1.7h-1.7v-1.7zm3.3 0h1.7v1.7h-1.7v-1.7zm3.3 0h1.7v1.7h-1.7v-1.7zm-10 0h1.7v1.7h-1.7v-1.7zm-3.3 0h1.7v1.7h-1.7v-1.7z"/></svg>