<svg xmlns="http://www.w3.org/2000/svg" width="1157.9" height="758.5" viewBox="0 0 1157.9 758.5"><path fill="#1A274C" d="M268.5 647.4c.8-6-7.6-10.9-14-11.4-3-.2-6.2.2-9-.8-6.2-2.2-8.7-10.2-14.8-12.8-4.5-1.9-9.8-.2-14.2 2-4.4 2.2-8.7 5-13.7 5.3-4.3.3-8.9-1.3-12.6.8-2.8 1.6-4.2 4.8-6.8 6.7-2.5 1.9-5.8 2.2-8.9 2.4-3.1.2-6.3.2-9.2 1.5-2.8 1.3-5.2 4.3-4.6 7.4l107.8-1.1z"/><path fill="#233160" d="M1087.6 186.6c1.4-9.9-12.5-18-23-18.8-5-.4-10.2.4-14.9-1.3-10.2-3.6-14.3-16.8-24.3-21-7.5-3.1-16-.3-23.3 3.3-7.2 3.6-14.4 8.2-22.5 8.7-7 .4-14.7-2.2-20.8 1.3-4.6 2.6-7 7.8-11.2 11-4.1 3-9.5 3.7-14.6 4-5.1.3-10.4.3-15.1 2.5-4.7 2.1-8.5 7.1-7.6 12.1l177.3-1.8z"/><path fill="#1A274C" d="M45.1 672.6l44.6-6.8c3.7 24.5-13.3 47.6-37.8 51.4-24.5 3.7-47.6-13.3-51.4-37.8-3.7-24.4 13.3-47.6 37.8-51.4 3.9-.6 7.8-.7 11.8-.2l-5 44.8z"/><path fill="#1A274C" d="M59.6 627.9l-5.4 34.6 33.9-6.4s-5-19.3-28.5-28.2z"/><path fill="#233160" d="M728.1 9.7c4 .1 7.8.7 11.6 1.8l7.5-7.8 15.3 9.3-3.4 10.3c2.7 2.8 5 5.9 6.9 9.4l10.8-.2 4.3 17.4-9.7 4.8c-.1 4-.7 7.8-1.8 11.6l7.8 7.5-9.3 15.3-10.3-3.4c-2.8 2.7-5.9 5-9.4 6.9l.2 10.8-17.4 4.3-4.8-9.7c-4-.1-7.8-.7-11.6-1.8l-7.5 7.8-15.3-9.2 3.4-10.3c-2.7-2.8-5-5.9-6.9-9.4l-10.8.2-4.3-17.4 9.7-4.8c.1-4 .7-7.8 1.8-11.6l-7.8-7.5 9.3-15.3 10.3 3.4c2.8-2.7 5.9-5 9.4-6.9l-.2-10.8L723.3 0l4.8 9.7zM723.5 35c-10.3 2.5-16.6 12.9-14.1 23.3 2.5 10.3 12.9 16.6 23.3 14.1 10.3-2.5 16.6-12.9 14.1-23.3-2.6-10.3-13-16.6-23.3-14.1z"/><path fill="#233160" d="M723.5 35s1.6-.7 4.7-.7c3-.1 7.8.7 12.2 4.2 2.2 1.7 4.2 4.1 5.6 7.1 1.3 3 2.1 6.6 1.7 10.3-.2 1.8-.6 3.7-1.4 5.5-.7 1.8-1.8 3.5-3.1 5.1-2.6 3.1-6.3 5.5-10.4 6.5-4.2 1-8.6.6-12.3-1-1.9-.8-3.6-1.8-5.1-3.1-1.5-1.2-2.8-2.7-3.8-4.2-2.1-3.1-3-6.6-3.2-9.9-.2-3.3.6-6.4 1.7-8.9 2.3-5.1 6.2-8 8.9-9.3 2.8-1.5 4.5-1.6 4.5-1.6 0 .1-1.7.4-4.3 1.9-2.6 1.4-6.2 4.3-8.4 9.3-1 2.5-1.7 5.4-1.5 8.5.2 3.1 1.2 6.5 3.2 9.4 1 1.5 2.2 2.8 3.6 4 1.4 1.2 3 2.2 4.8 2.9 3.5 1.5 7.6 1.8 11.6.9 3.9-1 7.4-3.2 9.9-6.2 1.2-1.4 2.2-3.1 2.9-4.8.7-1.7 1.2-3.5 1.4-5.2.4-3.5-.3-6.9-1.5-9.8-1.3-2.9-3.2-5.2-5.3-6.9-4.2-3.4-8.7-4.3-11.7-4.4-3 0-4.7.5-4.7.4zm109.4 563.9c2.5 0 5 .4 7.3 1.1l4.8-4.9 9.7 5.9-2.2 6.5c1.7 1.8 3.2 3.8 4.4 6l6.9-.1 2.7 11-6.1 3.1c0 2.5-.4 5-1.1 7.3l4.9 4.8-5.9 9.7-6.5-2.2c-1.8 1.7-3.8 3.2-6 4.4l.1 6.9-11 2.7-3.1-6.1c-2.5 0-5-.4-7.3-1.1l-4.8 4.9-9.7-5.9 2.2-6.5c-1.7-1.8-3.2-3.8-4.4-6l-6.9.1-2.7-11 6.1-3.1c0-2.5.4-5 1.1-7.3l-4.9-4.8 5.9-9.7 6.5 2.2c1.8-1.7 3.8-3.2 6-4.4l-.1-6.9 11-2.7 3.1 6.1zm-3 16c-6.5 1.6-10.5 8.2-8.9 14.7 1.6 6.5 8.2 10.5 14.7 8.9 6.5-1.6 10.5-8.2 8.9-14.7-1.5-6.5-8.1-10.5-14.7-8.9z"/><path fill="#233160" d="M829.9 614.9s1-.4 3-.5c1.9 0 4.9.4 7.7 2.7 1.4 1.1 2.7 2.6 3.5 4.5.8 1.9 1.3 4.2 1.1 6.5-.1 1.2-.4 2.4-.9 3.5s-1.1 2.2-1.9 3.2c-1.6 2-4 3.5-6.6 4.1-2.6.6-5.4.4-7.8-.6-1.2-.5-2.3-1.1-3.2-1.9-.9-.8-1.8-1.7-2.4-2.7-1.3-2-1.9-4.2-2.1-6.3-.1-2.1.4-4 1.1-5.6 1.5-3.3 3.9-5.1 5.6-5.9 1.8-.9 2.9-1 2.9-1 0 .1-1 .3-2.7 1.2-1.7.9-4 2.7-5.3 5.9-.7 1.6-1.1 3.4-.9 5.4.1 2 .7 4.1 2 5.9.6.9 1.4 1.8 2.3 2.5.9.8 1.9 1.4 3 1.8 2.2 1 4.9 1.2 7.4.6s4.7-2 6.3-3.9c.8-.9 1.4-2 1.9-3 .5-1.1.8-2.2.9-3.3.3-2.2-.2-4.4-1-6.2-.8-1.8-2-3.3-3.3-4.4-2.7-2.2-5.5-2.7-7.4-2.8-2.1.1-3.2.4-3.2.3zm283.5 87.4c-.1 0-.2-1.2-.4-3.6-.1-1.2-.2-2.6-.5-4.3-.3-1.7-.5-3.6-1.1-5.8-.9-4.3-2.9-9.4-6-14.8s-7.6-11-13.8-15.9c-6.2-4.8-13.9-8.9-23-10.7-9-1.7-19.1-1.7-28.9 1.8-4.9 1.6-9.6 4-14 7.1-2.3 1.5-4.2 3.3-6.3 5.1-1.9 2-3.9 3.9-5.5 6.2-6.9 8.8-11 20.2-11.4 32.1-.2 11.9 3.3 23.5 9.8 32.6 1.5 2.4 3.4 4.4 5.2 6.5 2 1.9 3.9 3.9 6.1 5.4 4.2 3.3 8.8 6 13.7 7.8 9.6 3.9 19.7 4.5 28.7 3.2 9.1-1.3 17.1-5.1 23.4-9.6 6.4-4.5 11.2-10 14.5-15.2 3.3-5.3 5.5-10.3 6.7-14.5.7-2.1 1.1-4 1.4-5.7.4-1.7.6-3.1.7-4.3.4-2.1.6-3.4.7-3.4.1 0 .1 1.2 0 3.6 0 1.2-.1 2.7-.4 4.4-.3 1.7-.5 3.7-1.2 5.9-1 4.4-3.1 9.6-6.4 15.1-3.3 5.5-8.2 11.2-14.7 16-6.5 4.8-14.8 8.8-24.3 10.3-9.4 1.5-20.1 1-30.2-3.1-5.1-1.9-10-4.7-14.4-8.1-2.3-1.7-4.3-3.7-6.4-5.7-1.9-2.2-3.9-4.3-5.5-6.8-6.9-9.6-10.6-21.9-10.4-34.4.4-12.5 4.7-24.6 12.1-33.8 1.7-2.4 3.8-4.4 5.8-6.5 2.2-1.9 4.3-3.8 6.7-5.4 4.6-3.3 9.6-5.8 14.8-7.4 10.3-3.6 20.9-3.5 30.3-1.6 9.4 2 17.5 6.4 23.8 11.5 6.3 5.1 10.9 11.1 13.9 16.7 3 5.7 4.9 11 5.7 15.4.5 2.2.7 4.2.9 5.9.2 1.7.2 3.2.2 4.4-.1 2.4-.2 3.7-.3 3.6z"/><path fill="#233160" d="M1102.2 667.2c.1.2-.9 1.1-2.8 2.5-1.1.8-2.3 1.6-3.6 2.6-.7.5-1.5 1-2.3 1.6-.9.5-1.8.9-2.8 1.4-7.5 4.3-19.4 8.8-33 8.3-1.7-.1-3.4-.1-5-.2-1.6-.3-3.2-.5-4.8-.8-.8-.1-1.6-.2-2.3-.4-.8-.2-1.5-.4-2.2-.6-1.5-.4-2.9-.8-4.3-1.2-5.5-1.9-10.3-4.2-14-6.5-7.5-4.6-11.2-8.7-10.9-9 .3-.3 4.4 3.1 12 7.1 3.8 2 8.5 3.9 13.8 5.6 1.3.4 2.8.7 4.2 1.1.7.2 1.4.4 2.2.5.7.1 1.5.2 2.2.3 1.5.2 3 .4 4.6.7 1.6.1 3.2.1 4.8.2 12.9.4 24.4-3.4 32-7.2 1-.4 1.9-.8 2.8-1.2.9-.4 1.6-.9 2.4-1.3 1.4-.8 2.7-1.5 3.8-2.1 1.8-1 3.1-1.5 3.2-1.4zm-89.9 68.4c-.1-.2.9-1.1 2.8-2.5 1.1-.8 2.3-1.6 3.6-2.6.7-.5 1.5-1 2.3-1.6.9-.5 1.8-.9 2.8-1.4 7.5-4.3 19.4-8.8 33-8.3 1.7.1 3.4.1 5 .2 1.6.3 3.2.5 4.8.8.8.1 1.6.2 2.3.4.8.2 1.5.4 2.2.6 1.5.4 2.9.8 4.3 1.2 5.5 1.9 10.3 4.2 14 6.5 7.5 4.6 11.2 8.7 10.9 9-.3.3-4.4-3.1-12-7.1-3.8-2-8.5-3.9-13.8-5.6-1.3-.4-2.8-.7-4.2-1.1-.7-.2-1.4-.4-2.2-.5-.7-.1-1.5-.2-2.2-.3-1.5-.2-3-.4-4.6-.7-1.6-.1-3.2-.1-4.8-.2-12.9-.4-24.4 3.4-32 7.2-1 .4-1.9.8-2.8 1.2-.9.4-1.6.9-2.4 1.3-1.4.8-2.7 1.5-3.8 2.1-1.9 1-3.1 1.5-3.2 1.4zm101.1-31.9c0 .9-25.2.9-56.2.2-31-.8-56.2-2.1-56.2-2.9 0-.9 25.2-.9 56.2-.2 31.1.7 56.2 2 56.2 2.9z"/><path fill="#233160" d="M1054.6 757.1c-.9 0-.9-25.2-.2-56.2.8-31 2.1-56.2 2.9-56.1.9 0 .9 25.2.2 56.2-.7 31-2 56.1-2.9 56.1z"/><path fill="#233160" d="M1054.6 757c-.2.3-6.4-3.9-13.5-13.4-3.5-4.7-7.2-10.9-10-18.2-2.8-7.4-4.5-16-4.3-25.2.2-9.2 2.5-17.7 5.7-24.9 3.2-7.2 7.2-13.1 11-17.7 7.6-9.1 13.8-13.2 14-12.9.3.4-5.4 5-12.3 14.2-3.4 4.6-7.1 10.5-10.1 17.5-2.9 7-5 15.1-5.2 23.9-.2 8.7 1.4 17 3.9 24.1 2.5 7.1 5.9 13.2 9.2 18 6.4 9.6 11.9 14.3 11.6 14.6zm4-112.2c.2-.3 6.4 3.9 13.5 13.4 3.5 4.7 7.2 10.9 10 18.2 2.8 7.4 4.5 16 4.3 25.2-.2 9.2-2.5 17.7-5.7 24.9-3.2 7.2-7.2 13.1-11 17.7-7.6 9.1-13.8 13.2-14 12.9-.3-.4 5.4-5 12.3-14.2 3.4-4.6 7.1-10.5 10.1-17.5 2.9-7 5-15.1 5.2-23.9.2-8.7-1.4-17-3.9-24.1-2.5-7.1-5.9-13.2-9.2-18-6.3-9.5-11.9-14.3-11.6-14.6z"/><path fill="#1A274C" d="M633.8 207.8c-7.5-8-13.7-14.8-15.8-17.3-4.5 4.6-9.4 9.5-14.6 14.6l-.2.2-.3-.2c-.2-.1-.5-.3-.7-.5-5.8-3.8-11.3-7.5-16.4-11-1.5 2.4-6.9 10.5-13.6 20-7.9 11.3-14.5 20.4-14.7 20.2l93.6-8.3c-.2.3-7.9-7.7-17.3-17.7z"/><path fill="#1A274C" d="M642.3 166c-2.2 2.2-5.2 5.3-9 9.1-4.3 4.3-9.4 9.5-15.1 15.2 2.4 2.3 8.8 9 16.3 16.9 9.4 10 16.8 18.2 16.6 18.4l-5.6-63.1s-.3.3-.8.9c-.6.7-1.4 1.5-2.4 2.6zm-56.7 27.6c-7.2-4.8-13.7-9.2-19.1-12.7-4.5-3-8.1-5.5-10.8-7.3-1.2-.8-2.2-1.5-2.9-2-.7-.5-1-.7-1-.8l5.6 63.1c-.2-.1 6.1-9.4 14-20.7 6.7-9.5 12.4-17.4 14.2-19.6zm-29.7-20.3c2.7 1.7 6.4 4.1 10.9 7.1 5.4 3.5 12 7.9 19.2 12.7l.1-.1v.1c5.2 3.4 10.7 7.1 16.5 10.9.1.1.3.2.4.3l14.4-14.4c-.2-.3-.3-.5-.3-.5s.2.1.5.4c5.7-5.7 10.9-10.9 15.2-15.1 3.8-3.7 6.9-6.8 9.2-9 1-1 1.9-1.8 2.5-2.4.6-.5.9-.8.9-.8l-93.6 8.3s.4.2 1.1.6c.8.5 1.8 1.1 3 1.9z"/><path fill="#5C8EBF" d="M572.2 213.7c6.7-9.5 12.1-17.5 13.6-20 5.2 3.4 10.7 7.1 16.4 11 .2.2.5.3.7.5l.3.2.2-.2c5.1-5.2 10-10.1 14.6-14.6 2.1 2.5 8.4 9.4 15.8 17.3 9.4 10 17.1 18 17.2 17.8.2-.2-7.3-8.4-16.6-18.4-7.5-8-13.9-14.7-16.3-16.9 5.7-5.7 10.9-10.9 15.1-15.2 3.7-3.8 6.8-6.9 9-9.1 1-1 1.8-1.9 2.4-2.5.5-.6.8-.9.8-.9s-.3.3-.9.8c-.6.6-1.5 1.4-2.5 2.4-2.2 2.2-5.3 5.2-9.2 9-4.3 4.3-9.5 9.4-15.2 15.1-.3-.2-.4-.4-.5-.4 0 0 .1.2.3.5-4.5 4.5-9.4 9.3-14.4 14.4-.1-.1-.3-.2-.4-.3-5.8-3.8-11.4-7.5-16.5-10.9v-.1l-.1.1c-7.3-4.8-13.9-9.1-19.2-12.7-4.6-2.9-8.3-5.4-10.9-7.1-1.2-.8-2.2-1.4-3-1.9-.7-.4-1.1-.6-1.1-.6s.3.3 1 .8 1.7 1.2 2.9 2c2.6 1.8 6.3 4.3 10.8 7.3 5.3 3.6 11.9 7.9 19.1 12.7-1.8 2.2-7.5 10.1-14.1 19.6-7.9 11.3-14.2 20.6-14 20.7.2 0 6.7-9.1 14.7-20.4z"/><path fill="#1A274C" d="M430 153c2.1-15.1-19.2-27.4-35.1-28.7-7.6-.6-15.5.6-22.7-2-15.6-5.4-21.9-25.6-37.1-32.1-11.4-4.8-24.5-.5-35.6 5-11.1 5.6-22 12.6-34.3 13.4-10.7.7-22.4-3.3-31.8 2-7 3.9-10.7 12-17.1 16.7-6.3 4.7-14.6 5.6-22.4 6.1-7.8.4-15.9.5-23.1 3.8-7.1 3.3-13 10.8-11.6 18.5L430 153z"/><path fill="#233160" d="M721 744.1c1.3-9.4-12-17.2-22-18-4.8-.4-9.7.3-14.3-1.2-9.8-3.4-13.7-16.1-23.3-20.1-7.1-3-15.4-.3-22.3 3.2s-13.8 7.9-21.5 8.4c-6.7.4-14-2.1-19.9 1.2-4.4 2.4-6.7 7.4-10.7 10.4-4 2.9-9.1 3.5-14 3.8-4.9.3-10 .3-14.5 2.4-4.5 2-8.2 6.8-7.2 11.6l169.7-1.7zM655.7 101c1.4-9.9-12.5-18-23-18.8-5-.4-10.2.4-14.9-1.3-10.2-3.6-14.3-16.8-24.3-21-7.5-3.1-16-.3-23.3 3.3-7.2 3.6-14.4 8.2-22.5 8.7-7 .4-14.7-2.2-20.8 1.3-4.6 2.6-7 7.8-11.2 11-4.1 3-9.5 3.7-14.6 4-5.1.3-10.4.3-15.1 2.5-4.7 2.1-8.5 7.1-7.6 12.1l177.3-1.8z"/><path fill="#E8505B" d="M618 408c-20.3-18.8-56.4-16.6-74.2 4.6-7.1 8.4-11.8 19.3-21.5 24.4-14.9 7.8-32.8-2-49.5-.6-19.6 1.7-35.7 21.5-33.2 41 1.1 8.8 5.3 18.2 1.1 26-5.3 10-20.5 10.4-26.9 19.7-5.8 8.4-1.3 20.8 7.1 26.6 8.4 5.8 19.2 6.5 29.4 6s20.5-1.9 30.5.4c10.9 2.5 20.4 9.2 30.8 13.4 25.1 10.1 54.4 4.5 77.7-9.3 23.2-13.8 41.2-34.9 56.9-56.9"/><path fill="#FFF" d="M618 408c-20.3-18.8-56.4-16.6-74.2 4.6-7.1 8.4-11.8 19.3-21.5 24.4-14.9 7.8-32.8-2-49.5-.6-19.6 1.7-35.7 21.5-33.2 41 1.1 8.8 5.3 18.2 1.1 26-5.3 10-20.5 10.4-26.9 19.7-5.8 8.4-1.3 20.8 7.1 26.6 8.4 5.8 19.2 6.5 29.4 6s20.5-1.9 30.5.4c10.9 2.5 20.4 9.2 30.8 13.4 25.1 10.1 54.4 4.5 77.7-9.3 23.2-13.8 41.2-34.9 56.9-56.9" opacity=".8"/><path fill="#E30014" d="M613.1 433.6c-16.5-16.2-47.3-13.9-61.3 4.5-8.5 11.3-13.4 28.5-27.4 30.4-9.5 1.3-18.5-5.9-28.1-5.1-12.7 1-20.5 16.5-17.2 28.9 3.3 12.3 14.1 21.2 25.5 27 39.5 20.1 92.1 9.5 120.8-24.3"/><path fill="#FFBE9D" d="M989.5 474.9l-21.3-30.3 27.8-19.7 19.4 39.6-24.6 10.2"/><path fill="#E30014" d="M1014.3 459l15.1 27.3s32.8-6.2 36.1-1.4l-51.9 31.2-25.3-41.6 26-15.5z"/><path fill="#FFF" d="M1012 493.8c-.8.9-.9 2.4 0 3.3.8.9 2.4.9 3.3 0 .9-.9.9-2.7 0-3.5-.9-.8-2.8-.7-3.4.3m1.8 22.2l-2.4-4.3 50.6-28.3s2.9-.4 3.6 1.4l-51.8 31.2z" opacity=".6"/><path fill="#263238" d="M1030.1 485.6c.1.3-1.1 1.1-1.8 2.7-.8 1.5-.8 3-1.1 3.1-.3.1-.8-1.7.2-3.5.9-2 2.6-2.6 2.7-2.3zm6.8-1.1c.2.2-.6 1.3-.8 2.9-.3 1.6.2 2.9 0 3-.2.2-1.3-1.2-1-3.2.2-1.9 1.6-2.9 1.8-2.7zm7 4.7c-.2.2-1.3-.9-1.5-2.6-.2-1.8.7-3 .9-2.9.3.1-.1 1.3.1 2.8.2 1.4.7 2.5.5 2.7zm-17.9-9.5c0 .3-1.3.6-2.7 1.6-1.4.9-2.2 2.1-2.5 1.9-.3-.1.3-1.7 1.9-2.8 1.6-1 3.3-.9 3.3-.7zm-3.2-5.4c.1.1-.8.9-2.6 1.6-.9.3-2 .6-3.2.8-.6.1-1.3.1-2 .1-.3 0-.7 0-1.2-.1-.4-.1-1-.7-.9-1.3 0-.6.4-1 .8-1.2.4-.2.7-.4 1.1-.5.7-.2 1.3-.3 1.9-.4 1.3-.1 2.4-.1 3.3.1 1.9.4 2.9 1.1 2.8 1.2-.1.2-1.1-.3-2.9-.5-.9-.1-2-.1-3.1.1-.6.1-1.2.2-1.8.4-.6.2-1.1.5-1.1.8 0 .1 0 .2.2.3.2.1.5.1.8.1h1.8c1.2-.1 2.2-.3 3.1-.5 1.9-.6 2.9-1.2 3-1z"/><path fill="#263238" d="M1022.7 474.8c-.1.1-1.1-.5-2.2-2.1-.5-.8-1-1.8-1.4-3.1-.2-.6-.3-1.3-.3-2s0-1.6.9-2.3c.5-.3 1.2-.2 1.5.1.4.2.6.5.8.8.5.5.8 1.1 1.1 1.7.5 1.2.6 2.4.5 3.4-.2 2-1.1 2.9-1.2 2.8-.2-.1.4-1.1.4-2.9 0-.9-.2-1.9-.6-2.9-.2-.5-.6-1-1-1.5s-.9-.8-1.1-.6c-.3.2-.4.8-.4 1.4 0 .6.1 1.2.2 1.8.2 1.1.6 2.1 1.1 2.9 1 1.6 1.8 2.4 1.7 2.5zM910.4 367.2l66.4 104.4 36.3-24.7-61.2-125.8"/><path fill="#455A64" d="M915.7 344.3c.3.1-1.7 4.4-2.7 10-1 5.6-.6 10.3-.9 10.3-.2.1-1.1-4.7-.1-10.4 1.1-5.9 3.5-10 3.7-9.9zm-6.8.3c.3 0 0 4.6.8 10.1.7 5.5 2.1 9.9 1.9 10-.2.1-2.1-4.2-2.8-9.8-.8-5.7-.1-10.3.1-10.3z"/><path fill="#263238" d="M651.4 366.9l-45.6-14.1c-55 70-51.3 146.9 37.2 192.4l49.1-55-40.7-123.3z"/><path fill="#E0E0E0" d="M655.8 355.7c-29.2 17-43.7 52.9-40.1 87.9 3.9 38.5 29.3 76 75.9 86.4l313.3-62.6c54.7-10.9 88.3-66.3 72.8-119.9-14.2-48.8-64.3-77.9-113.7-66l-308.2 74.2z"/><path fill="#263238" d="M655.8 355.7s1-.3 2.9-.8 4.8-1.2 8.6-2.1c7.5-1.8 18.6-4.5 32.9-8 28.6-6.9 70.1-17 121.2-29.4 25.6-6.2 53.6-13 83.7-20.2 15.1-3.6 30.6-7.4 46.7-11.3 4-1 8-1.9 12.1-2.9 2.1-.4 4.1-.8 6.2-1.2 1-.2 2.1-.4 3.1-.6l3.2-.3c2.1-.2 4.2-.4 6.4-.5h6.5c2.2-.1 4.3.2 6.5.5l3.2.3 1.6.2 1.6.3c2.1.4 4.3.9 6.5 1.3 2.1.5 4.2 1.2 6.4 1.8 1.1.3 2.1.6 3.2 1l3.1 1.3 3.1 1.3c1 .4 2.1.8 3.1 1.4 2 1 4 2.1 6 3.1 2 1.1 3.8 2.4 5.7 3.6.9.6 1.9 1.2 2.8 1.9l2.7 2.1 2.7 2.1 1.3 1.1 1.2 1.2c13.7 12.2 23.9 28.7 28.8 47.2 4.9 18.4 4.1 38.7-2.8 57.1-6.8 18.4-19.5 35-36.3 46.3-7 4.8-14.7 8.5-22.7 11.2-8 2.8-16.3 4-24.3 5.7-16.2 3.2-32.3 6.4-48.1 9.6-31.6 6.3-62.3 12.4-91.8 18.3-59 11.8-113.4 22.6-161.1 32.1h-.2c-8.4-2-16.4-4.8-23.8-8.4-7.3-3.8-14-8.3-19.9-13.5-5.8-5.2-10.8-11-15.1-17-4.1-6.1-7.5-12.4-10.2-18.8-.7-1.6-1.2-3.2-1.8-4.8-.6-1.6-1.2-3.2-1.6-4.8-.5-1.6-.9-3.2-1.3-4.8-.3-1.6-.7-3.2-1-4.8-.3-1.6-.7-3.1-.8-4.7-.2-1.6-.4-3.1-.6-4.6-.2-1.5-.2-3.1-.3-4.6-.1-1.5-.2-3-.2-4.5-.2-11.9 1.6-22.7 4.6-32.1 2.9-9.3 6.9-17.2 11.1-23.4 4.2-6.3 8.5-11.1 12.4-14.5 1-.9 1.8-1.7 2.7-2.4.9-.7 1.8-1.3 2.5-1.9.8-.6 1.5-1.1 2.2-1.6.7-.4 1.3-.8 1.9-1.2 2.4-1.6 3.5-2.3 3.5-2.3s-1.1.8-3.4 2.2c-.6.4-1.2.8-1.9 1.2-.7.5-1.4 1.1-2.1 1.7-.8.6-1.6 1.3-2.5 2-.9.7-1.7 1.6-2.7 2.4-3.8 3.5-8.2 8.2-12.3 14.5-4.2 6.3-8.1 14.1-11 23.4-2.9 9.3-4.7 20.1-4.4 31.9 0 1.5.1 3 .2 4.5s.2 3 .4 4.6c.2 1.5.4 3.1.6 4.6.2 1.6.5 3.1.8 4.7.3 1.6.7 3.1 1 4.7.4 1.6.9 3.1 1.3 4.7s1 3.2 1.6 4.8c.6 1.6 1.1 3.2 1.8 4.8 2.6 6.3 6 12.6 10.1 18.7 4.3 6 9.2 11.7 15 16.9 5.9 5.1 12.5 9.6 19.8 13.3 7.3 3.6 15.3 6.4 23.6 8.4h-.2c47.7-9.6 102-20.4 161.1-32.3 29.5-5.9 60.2-12 91.8-18.4 15.8-3.2 31.8-6.4 48.1-9.6 8.1-1.7 16.4-2.9 24.2-5.7 7.9-2.7 15.5-6.4 22.4-11.1 16.6-11.1 29.2-27.5 36-45.8 6.8-18.3 7.6-38.3 2.8-56.5-4.8-18.3-14.9-34.6-28.5-46.7l-1.2-1.2-1.3-1.1-2.7-2.1-2.7-2.1c-.9-.7-1.9-1.2-2.8-1.9-1.9-1.2-3.7-2.5-5.7-3.6-2-1-4-2.1-5.9-3.1-1-.5-2-1-3-1.4l-3.1-1.2-3.1-1.2c-1-.4-2.1-.6-3.1-1-2.1-.6-4.2-1.3-6.3-1.8-2.1-.4-4.3-.9-6.4-1.3l-1.6-.3-1.6-.2-3.2-.3c-2.1-.2-4.3-.5-6.4-.5-2.1 0-4.3 0-6.4-.1-2.1.1-4.2.4-6.3.5l-3.1.3c-1 .2-2.1.4-3.1.6-2.1.4-4.1.8-6.2 1.2-4.1 1-8.1 1.9-12.1 2.9-16 3.9-31.6 7.6-46.7 11.2-30.1 7.2-58.1 14-83.8 20.1-51.2 12.3-92.7 22.2-121.3 29.1-14.3 3.4-25.4 6.1-33 7.9-3.8.9-6.6 1.6-8.6 2-1.9.5-2.9.7-2.9.7z"/><path fill="#E30014" d="M691.6 530l-41.3 94s194.9-18.8 186.6-123l-145.3 29zm111.8-209.8s-93.7-91-212.9-52.6l65.4 88.2 147.5-35.6zm171.1-40c40.2 29.7 64.8 145.2 45.4 181.9 114-33.4 137.9-131.2 137.9-131.2-82.4-76.8-183.3-50.7-183.3-50.7z"/><ellipse transform="rotate(-48.831 618.67 503.452)" fill="#455A64" cx="618.7" cy="503.5" rx="21.8" ry=".5"/><path fill="#263238" d="M1157.9 330.8s-.2.4-.7 1.2c-.5.8-1.2 2-2.2 3.6-1 1.6-2.1 3.5-3.5 5.8-.7 1.2-1.5 2.4-2.3 3.7-.9 1.3-1.8 2.6-2.8 4.1-2 2.9-4.2 6.1-6.7 9.5-2.7 3.3-5.6 6.9-8.7 10.8-1.6 1.9-3.4 3.7-5.2 5.7-1.8 1.9-3.6 4-5.6 6-4.1 3.9-8.3 8.1-13.2 12-9.6 8-21 15.9-34.1 22.5-6.6 3.4-13.6 6.3-21 9-3.7 1.4-7.5 2.5-11.3 3.9-3.8 1.3-7.9 2.1-11.9 3.1-32.3 7.1-67.9 14.5-105.3 22.2-74.8 15.5-142.5 29.2-191.6 39.1-24.5 4.9-44.3 8.9-58.1 11.7-6.8 1.4-12.2 2.4-15.8 3.1-1.8.3-3.2.6-4.1.8-.9.2-1.4.2-1.4.2s.5-.1 1.4-.3c1-.2 2.3-.5 4.1-.9 3.6-.8 8.9-1.9 15.8-3.3 13.7-2.8 33.5-6.9 58-12 49-10.1 116.7-24 191.5-39.4 37.4-7.8 73-15.1 105.3-22.2 4.1-.9 8-1.7 11.8-3 3.8-1.4 7.6-2.5 11.3-3.9 7.4-2.6 14.4-5.6 20.9-8.9 13.1-6.6 24.5-14.4 34.1-22.3 4.9-3.9 9.1-8.1 13.2-11.9 2.1-1.9 3.8-4 5.7-5.9 1.8-1.9 3.6-3.8 5.2-5.7 3.1-3.8 6.1-7.4 8.7-10.7 2.5-3.4 4.7-6.6 6.8-9.5 1-1.4 2-2.8 2.9-4 .8-1.3 1.6-2.5 2.3-3.7 1.4-2.3 2.6-4.2 3.6-5.8 1-1.5 1.7-2.7 2.2-3.5.4-.7.7-1.1.7-1.1z"/><path fill="#263238" d="M861.2 496.3s-.1-.1-.3-.4c-.2-.3-.5-.7-.9-1.1-.8-1.1-2-2.6-3.4-4.5-.7-1-1.5-2.1-2.4-3.2-.9-1.2-1.7-2.6-2.7-4-1.9-2.9-4.2-6.1-6.3-9.9-1.1-1.9-2.2-3.9-3.4-5.9-1.2-2.1-2.2-4.3-3.4-6.6-2.4-4.5-4.5-9.6-6.8-14.8-4.3-10.7-8.3-22.7-11.2-35.6-2.8-13-4.3-25.6-5-37.1-.1-5.7-.4-11.2-.1-16.3.1-2.6.1-5 .3-7.4.2-2.4.4-4.6.6-6.8.3-4.3 1-8.2 1.5-11.6.3-1.7.5-3.3.7-4.8.3-1.4.6-2.8.8-4 .5-2.3.9-4.1 1.2-5.5.1-.6.2-1 .3-1.4.1-.3.1-.5.1-.5v.5c-.1.4-.1.9-.2 1.4-.2 1.3-.6 3.2-1 5.5-.2 1.2-.5 2.5-.7 4-.2 1.5-.4 3.1-.6 4.8-.4 3.4-1.1 7.3-1.3 11.6-.2 2.2-.3 4.4-.5 6.8-.2 2.4-.1 4.8-.2 7.4-.2 5.1 0 10.5.2 16.3.7 11.4 2.2 24 5 36.9 2.9 12.9 6.9 24.9 11.1 35.5 2.3 5.3 4.3 10.3 6.7 14.8 1.2 2.3 2.2 4.5 3.3 6.6 1.2 2.1 2.3 4 3.4 5.9 2 3.8 4.3 7 6.1 10 .9 1.4 1.8 2.8 2.6 4 .9 1.2 1.6 2.3 2.4 3.3 1.4 1.9 2.5 3.5 3.2 4.6.3.5.6.9.8 1.2 0 .1.1.2.1.3z"/><path fill="#E30014" d="M773.2 399.3L576.7 440s-.9 19.2 3.9 19.3c4 .1 150.1-26.2 197.5-34.8 7.7-1.4 12.4-9.4 9.8-16.8-2.1-6.1-8.4-9.7-14.7-8.4z"/><ellipse transform="translate(.537 -1.299)" fill="#FAFAFA" cx="923.6" cy="381.1" rx="47" ry="43.7"/><path fill="#263238" d="M970.6 381.2s0-.2-.1-.7c0-.5-.1-1.2-.2-2.1 0-.5-.1-1-.1-1.6-.1-.6-.2-1.2-.3-1.9-.1-.7-.2-1.4-.4-2.2-.2-.8-.4-1.6-.7-2.4-.4-1.8-1.2-3.6-2-5.6-1-1.9-2-4.1-3.5-6.2-2.8-4.2-6.8-8.5-12.1-12.1-5.3-3.6-11.8-6.5-19.3-7.7-1.9-.3-3.7-.6-5.7-.6-1 0-1.9-.1-2.9-.1s-2 .1-3 .1l-1.5.1-1.5.2c-1 .1-2 .3-3 .4-1 .2-2 .5-3 .7l-1.5.4-1.5.5c-8 2.6-15.8 7.5-21.6 14.6-6 7-9.4 16.4-9.6 26.1.1 9.7 3.5 19.1 9.5 26.1 5.8 7.1 13.6 12.1 21.6 14.7l1.5.5 1.5.4c1 .2 2 .5 3 .7 1 .1 2 .3 3 .4l1.5.2 1.5.1c1 .1 2 .1 3 .1s2-.1 2.9-.1c1.9 0 3.8-.3 5.7-.6 7.4-1.1 14-4.1 19.3-7.6 5.3-3.6 9.3-7.9 12.1-12.1 1.5-2.1 2.5-4.2 3.5-6.2.8-2 1.6-3.8 2-5.6.2-.9.5-1.7.7-2.4.1-.8.3-1.5.4-2.2.1-.7.2-1.3.3-1.9 0-.6.1-1.1.1-1.6.1-.9.1-1.6.2-2.1.2-.4.2-.7.2-.7v.7c0 .5 0 1.2-.1 2.2 0 .5 0 1-.1 1.6-.1.6-.2 1.2-.3 1.9-.1.7-.2 1.4-.3 2.2-.2.8-.4 1.6-.6 2.5-.4 1.8-1.2 3.6-2 5.7-1 2-2 4.2-3.5 6.3-2.8 4.3-6.9 8.7-12.2 12.4-5.3 3.6-12 6.7-19.5 7.9-1.9.3-3.8.6-5.8.6-1 0-2 .1-3 .1s-2-.1-3-.1l-1.5-.1-1.5-.2c-1-.1-2.1-.3-3.1-.4-1-.2-2-.5-3.1-.7l-1.6-.4-1.5-.5c-8.2-2.6-16.1-7.6-22-14.9-6.1-7.1-9.6-16.8-9.7-26.7.1-9.9 3.7-19.6 9.8-26.7 5.9-7.3 13.9-12.2 22.1-14.8l1.5-.5 1.6-.4c1-.2 2.1-.5 3.1-.7 1-.1 2.1-.3 3.1-.4l1.5-.2 1.5-.1c1 0 2-.1 3-.1s2 .1 3 .1c2 0 3.9.4 5.8.6 7.6 1.2 14.2 4.2 19.5 7.9 5.3 3.7 9.4 8.1 12.2 12.4 1.5 2.1 2.5 4.3 3.4 6.3.8 2.1 1.6 3.9 2 5.7.2.9.5 1.7.6 2.5.1.8.2 1.5.3 2.2.1.7.2 1.3.3 1.9 0 .6 0 1.1.1 1.6 0 .9.1 1.6.1 2.2-.1.2-.1.4-.1.4z"/><path fill="#455A64" d="M764.5 268.9c-15.1-.7-22.5 10.6-31 12.9-8.4 2.3-17.7 2.7-25.8-.6-10.5-4.3-17.7-14-27-20.6-18.5-13.3-45.9-12.5-63.6 1.8-.4 10.1 8.2 18 16.5 23.7 8.3 5.7 31.5 13.8 34.4 23.4 2.2 7.2-13.3 13.3-9.4 19.7 3.8 6.2 16.9 5.8 24 4.6 45.1-7.8 29.3 6 43.3 4.8 0 0 29.3-7.4 52.2-11.2"/><path fill="#FFBE9D" d="M916.6 534.6L902 500.5l31.3-13.6 10.8 42.8-26.2 4.9"/><path fill="#E30014" d="M944.1 524.1l9.2 29.8s33.4.7 35.6 6.1l-57.2 19.8-16.2-45.8 28.6-9.9z"/><path fill="#FFF" d="M934.7 557.6c-1 .7-1.3 2.2-.7 3.2.6 1 2.2 1.4 3.2.7s1.5-2.5.7-3.4c-.8-1-2.6-1.3-3.4-.4m-2.8 22.2l-1.4-4.7 55.4-17.3s2.9.2 3.3 2.1l-57.3 19.9z" opacity=".6"/><path fill="#263238" d="M954.1 553.4c.1.3-1.3.9-2.3 2.3-1.1 1.3-1.4 2.8-1.7 2.8-.3 0-.4-1.8.9-3.4 1.3-1.8 3.1-2 3.1-1.7zm6.9.4c.2.2-.9 1.1-1.4 2.7-.6 1.5-.4 2.9-.7 2.9-.2.1-1-1.4-.3-3.3s2.3-2.6 2.4-2.3zm5.9 6c-.2.1-1.1-1.1-.9-2.9.2-1.8 1.3-2.8 1.5-2.6.2.2-.3 1.3-.5 2.8-.2 1.3.1 2.5-.1 2.7zm-15.6-13c0 .3-1.4.4-3 1s-2.6 1.6-2.8 1.4c-.2-.1.6-1.6 2.4-2.3 1.8-.8 3.4-.4 3.4-.1zm-2-6c0 .1-1 .7-2.9 1-.9.2-2.1.2-3.3.1-.6-.1-1.3-.2-1.9-.3-.3-.1-.7-.1-1.1-.4-.4-.2-.8-.9-.6-1.4.1-.5.6-.9 1-1.1.4-.2.8-.2 1.1-.2.7-.1 1.4-.1 2 0 1.3.1 2.4.4 3.2.8 1.8.8 2.6 1.7 2.5 1.7-.1.1-1-.5-2.7-1.1-.8-.3-1.9-.5-3.1-.6-.6 0-1.2 0-1.8.1-.7.1-1.2.2-1.2.5 0 .1 0 .2.2.3.2.1.5.2.8.3.6.2 1.2.3 1.8.3 1.2.1 2.2.2 3.1.1 1.8 0 2.9-.2 2.9-.1z"/><path fill="#263238" d="M949.1 541.3c-.1.1-1-.7-1.7-2.5-.4-.9-.6-2-.7-3.3 0-.6 0-1.3.1-2s.3-1.6 1.3-2.1c.6-.2 1.2.1 1.5.4.3.3.5.6.7.9.3.6.6 1.3.7 1.9.2 1.3.1 2.5-.2 3.4-.6 1.9-1.7 2.6-1.7 2.5-.1-.1.6-1 1-2.7.2-.8.2-1.9 0-3-.1-.5-.3-1.1-.6-1.6-.3-.6-.7-1-.9-.8-.3.1-.6.7-.7 1.3-.1.6-.2 1.2-.2 1.8 0 1.2.2 2.2.4 3.1.5 1.7 1.1 2.6 1 2.7zM767 270s-27.1 53.7-8.9 66.3c18.2 12.6 103.3 76.5 103.3 76.5l43.4 115.8 40.6-16.7-33.9-135.7-85.5-76.8-59-29.4z"/><path fill="#455A64" d="M871.4 391.5c.2.2-2.6 3.9-4.7 9.2-2.1 5.3-2.7 9.9-3 9.9-.2 0-.1-4.8 2.1-10.2 2.2-5.5 5.5-9.1 5.6-8.9zm-6.7-1.1c.3.1-.9 4.5-1.3 10.1-.5 5.6.1 10.1-.2 10.1-.2.1-1.2-4.5-.7-10.2.3-5.7 2-10.1 2.2-10z"/><path fill="#455A64" d="M908.9 527l-.3-.6c-.2-.4-.4-1-.7-1.7-.6-1.6-1.5-3.8-2.6-6.7-2.2-5.8-5.5-14.3-9.4-24.9-3.9-10.6-8.6-23.3-13.4-37.7-1.2-3.6-2.4-7.3-3.6-11.1-1.2-3.8-2.3-7.7-3.9-11.6-3.1-7.7-6.8-15.5-10.9-23.4l.1.1c-4.6-3.9-9.4-7.9-14.3-12-3.9-3.2-7.7-6.3-11.6-9.2-3.9-2.9-7.7-5.8-11.5-8.7-7.5-5.7-14.8-11.2-21.8-16.2s-14-9.4-20.4-13.8c-6.3-4.4-12.1-8.7-16.8-13.4-2.3-2.3-4.4-4.7-5.9-7.3-1.6-2.5-2.6-5.2-3.2-7.7-1.2-5.1-.8-9.7-.2-13.3.7-3.6 1.7-6.3 2.4-8.1.3-.9.6-1.6.8-2 .2-.5.3-.7.3-.7s-.1.2-.2.7c-.2.5-.4 1.1-.7 2.1-.6 1.8-1.5 4.5-2.2 8.1-.6 3.6-.9 8.1.3 13.1.6 2.5 1.7 5.1 3.2 7.5 1.6 2.5 3.6 4.8 5.9 7.1 4.6 4.6 10.4 8.9 16.7 13.2 6.4 4.3 13.4 8.7 20.4 13.7 7.1 5 14.4 10.5 21.9 16.2 3.8 2.8 7.6 5.7 11.5 8.7 3.9 3 7.7 6.1 11.6 9.3 4.9 4.1 9.8 8.1 14.3 12l.1.1v.1c4.1 7.9 7.8 15.8 10.9 23.5 1.6 3.9 2.7 7.8 3.8 11.6 1.2 3.8 2.4 7.5 3.6 11.1 4.8 14.4 9.4 27.1 13.2 37.8 3.9 10.6 7 19.1 9.1 25 1.1 2.9 1.9 5.2 2.5 6.8.3.7.5 1.3.6 1.8.4.2.5.5.4.5z"/><path fill="#263238" d="M800.4 287.2l52.4 7.4 26.9 6.8-36.8 13.2zm-64.1-3.8s-.3.5-1.1 1.3c-.7.8-1.9 1.8-3.4 3-3 2.4-7.4 5.3-12.8 7.6-5.4 2.2-10.6 3.4-14.4 3.8-1.9.2-3.4.3-4.5.3s-1.7 0-1.7-.1c0-.2 2.3-.3 6.1-.8 3.7-.6 8.8-1.8 14.1-4 5.3-2.2 9.7-5 12.8-7.3 3-2.3 4.8-3.9 4.9-3.8z"/><path fill="#E30014" d="M773.9 206.7l-10.1 76s33.6-2.2 57.3 5.7c23.7 7.9 38.3 7.6 38.3 7.6l-5-47.3 17.7-38.7 7.8 45.4 36.3 37.4 23.7-5.4-24.5-41.1-17-83.7v-.1c-1.4-7-5.2-13.2-10.7-17.8l-.7-.6-35.7-19.9-12 .2c-13.2.4-23.4 1.8-30.2 3.1-6.1 1.2-12.1 4.2-16.3 8.7-2.9 3.2-6.7 9-8.3 15.5l-10.6 55z"/><path fill="#263238" d="M887.2 174.9c.1 0-.3.9-.9 2.4-.7 1.7-1.6 3.9-2.7 6.5-2.3 5.5-5.6 13-9.3 21.3-3.7 8.2-7 15.6-9.5 21.3-1.2 2.6-2.2 4.7-2.9 6.4-.7 1.5-1.1 2.3-1.2 2.3-.1 0 .2-.9.8-2.5.6-1.6 1.5-3.8 2.7-6.5 2.3-5.5 5.6-13.1 9.2-21.4 3.7-8.3 7-15.8 9.5-21.2 1.2-2.6 2.2-4.7 3-6.4.8-1.4 1.2-2.2 1.3-2.2z"/><path fill="#E30014" d="M786.5 161.7c6.9 19.4 20.3 63.6 26.8 80.6 2 5.2 5.3 9.7 9.7 13.2l72.1 51 16.7-21.6-54-52.1-29.1-86.3c-4.1-11.5-21.1-17.8-31.7-11.6-8.2 4.7-13.7 17.9-10.5 26.8z"/><path fill="#263238" d="M829.9 150l.6 1.5c.4 1 .9 2.5 1.5 4.4 1.3 3.9 3.3 9.5 5.7 16.7 4.9 14.5 11.9 35.1 20.4 60l-.1-.2c15.8 15.3 34.3 33 54.1 52.1l.3.3-.3.3c-3.8 5-7.9 10.2-12 15.6-1.6 2.1-3.2 4.2-4.7 6.1l-.3.4-.4-.3c-19.7-14.2-38.4-27.6-55.3-39.9-4.2-3.1-8.4-6-12.4-8.9-1-.7-2-1.4-3-2.2-1-.7-2-1.4-2.9-2.3-1.8-1.6-3.3-3.5-4.6-5.5-1.3-2-2.2-4.1-3-6.2-.8-2.1-1.6-4.1-2.4-6.1-1.5-4-3-7.9-4.3-11.6-5.3-14.8-9.2-26.9-11.9-35.2-1.3-4.2-2.3-7.4-3-9.6-.3-1.1-.6-1.9-.7-2.5-.2-.6-.2-.9-.2-.9s.1.3.3.8c.2.6.5 1.4.8 2.5.7 2.2 1.8 5.4 3.2 9.6 2.8 8.3 6.8 20.4 12.2 35.1 1.3 3.7 2.8 7.5 4.3 11.6.8 2 1.6 4 2.4 6.1.8 2.1 1.7 4.1 3 6 1.2 1.9 2.7 3.7 4.5 5.3.9.8 1.8 1.5 2.8 2.2l3 2.1c4 2.9 8.1 5.8 12.4 8.9 17 12.2 35.7 25.6 55.4 39.8l-.7.1c1.5-1.9 3.1-4 4.7-6.1 4.1-5.3 8.2-10.6 12-15.6v.6c-19.7-19.1-38.1-36.9-54-52.1l-.1-.1v-.1c-8.3-24.9-15.2-45.6-20.1-60.1-2.4-7.2-4.2-12.9-5.5-16.8-.6-1.9-1.1-3.4-1.4-4.4-.2-.9-.3-1.4-.3-1.4zm-6.9-10.5c-.1.1-1.3-1.2-3.7-2.6-2.3-1.5-5.9-3-10.1-3.2-4.2-.2-7.9 1-10.4 2.2-2.5 1.2-3.8 2.4-3.9 2.2-.1-.1 1.1-1.4 3.6-2.8 2.4-1.4 6.3-2.8 10.7-2.6 4.4.2 8.1 1.9 10.4 3.6 2.4 1.7 3.5 3.1 3.4 3.2zm93.9 107.8c0 .3-3.4-.1-7.4.9-4 .9-6.8 2.8-7 2.6-.2-.2 2.6-2.5 6.8-3.5 4.2-1 7.7-.2 7.6 0z"/><path fill="#FAFAFA" d="M795.9 190.8s-.3.1-.7.2c-.5.1-1.1.2-2 .3-1.7.2-4.1.2-6.7-.4-2.6-.6-4.7-1.8-6.1-2.8-.7-.5-1.3-.9-1.6-1.2-.4-.3-.6-.5-.5-.5.1-.2 3.3 2.8 8.3 4.1 5 1.2 9.3.1 9.3.3zm5.6 16.5c0 .1-1.2-1-3.4-2-2.2-1.1-5.5-2.1-9.2-2.4-3.7-.3-7.1 0-9.6.2-1 .1-2 .2-2.9.3-.7.1-1.1.1-1.1.1s.4-.1 1.1-.2c.7-.1 1.7-.2 2.9-.4 2.4-.3 5.9-.6 9.6-.3 3.8.3 7.1 1.3 9.3 2.5 1.1.6 1.9 1.1 2.5 1.6.5.3.8.6.8.6z"/><path d="M792.2 179.3s1.9 28.9 4 42.3c2.1 13.3 6.4 27 15.9 36.5 9.6 9.6 23.3 13.9 36.7 16.6-4.3-3.2-8.5-6.6-12.7-10.1-5.3-4.4-13.2-8.8-17.5-14.2-8.3-10.5-10.1-23.8-14.3-36.5-3.9-11.8-8.2-22.9-12.1-34.6" opacity=".4"/><path fill="#FAFAFA" d="M842.4 190.6s-.5.4-1.5.8-2.6.7-4.6.7c-4 .1-9.2-1.9-15.2-1.3-6 .4-11.1 2.6-14.4 4.6-1.7 1-2.9 2-3.8 2.7-.3.3-.7.6-1 .8-.2.2-.3.3-.4.3 0 0 1.6-1.9 5-4 3.3-2.1 8.5-4.4 14.5-4.8 6.1-.6 11.4 1.4 15.3 1.4 2 .1 3.5-.2 4.6-.6.9-.3 1.4-.6 1.5-.6zm-5.4-14s-.1.1-.4.2c-.3.2-.7.4-1.1.6-.9.5-2.3 1.2-4 2.1-3.4 1.6-8.4 3.5-14 4.9-5.7 1.3-10.9 1.9-14.7 1.9h-4.5c-.4 0-.8 0-1.2-.1-.3 0-.4 0-.4-.1s.1 0 .4 0h1.2c1.1 0 2.6 0 4.5-.1 3.8-.2 9-.7 14.7-2 5.6-1.3 10.6-3.2 14-4.8 1.7-.8 3.1-1.4 4.1-1.9.4-.2.8-.4 1.1-.5.2-.2.3-.2.3-.2zm40.9 15.1s-.2 0-.5-.1-.8-.2-1.4-.5c-1.2-.5-2.8-1.4-4.5-3-3.5-3-6.7-8.6-12.2-12.9-5.4-4.4-11.4-6.7-15.8-7.8-2.2-.6-4-.8-5.3-.9-.5 0-1-.1-1.5-.1-.3 0-.5-.1-.5-.1s2.9-.1 7.3.9 10.5 3.3 16 7.8c2.7 2.2 5 4.7 6.8 7.1 1.9 2.3 3.6 4.4 5.3 6 1.6 1.6 3.2 2.5 4.4 3 1.2.4 2 .6 1.9.6zm-2.1 8.9s-.6-.1-1.5-.4c-1-.4-2.3-1.1-3.7-2.3-1.4-1.2-2.9-2.8-4.5-4.6-1.6-1.8-3.3-3.9-5.5-5.6-2.2-1.7-4.7-2.7-7.1-3.1-2.4-.4-4.6-.3-6.4-.1-1.8.2-3.3.4-4.3.5-.4.1-.8.1-1.2.2h-.4s.1-.1.4-.1c.4-.1.7-.2 1.2-.2 1-.2 2.5-.5 4.3-.6 1.8-.2 4.1-.3 6.5 0 2.4.3 5 1.3 7.3 3.1 2.2 1.8 4 3.9 5.5 5.7 1.6 1.8 3 3.5 4.4 4.7 1.4 1.2 2.7 1.9 3.6 2.3.8.2 1.4.4 1.4.5zm28.3-6c0 .1-1.5-.6-4.1-.4-1.3.1-2.8.4-4.4 1-1.6.6-3.3 1.4-5.1 2.2-1.8.8-3.6 1.5-5.3 1.9-1.7.4-3.3.4-4.6.2-1.3-.2-2.3-.6-2.9-1-.6-.4-.9-.7-.9-.7 0-.1 1.3 1 3.9 1.3 1.3.1 2.8.1 4.4-.3 1.6-.4 3.4-1.1 5.2-1.9 1.8-.8 3.5-1.6 5.1-2.2 1.6-.6 3.2-.9 4.5-.9 1.3-.1 2.4.1 3.1.3.7.3 1.1.5 1.1.5zm2.9 10.1c0 .1-1.6-1.6-5.1-1.8-1.7-.1-3.7.2-5.8 1-2.1.8-4.2 2.2-6.3 3.7-2.1 1.5-4.2 2.9-6.3 3.9-2.1 1-4.1 1.5-5.8 1.6-1.7.1-3.1-.2-4-.6-.9-.4-1.3-.7-1.3-.7 0-.1 1.9 1.3 5.3 1 1.7-.1 3.7-.6 5.7-1.6s4.1-2.4 6.2-3.9c2.1-1.5 4.3-2.9 6.4-3.7 2.1-.8 4.2-1.1 5.9-1 1.7.1 3.1.6 3.9 1.1.8.5 1.2 1 1.2 1z"/><path d="M876.3 234.4c3.8-15.1 4.5-31.5 5.1-47.1-1.3 5.5-4.7 10.2-6.7 15.4-1 2.5-2.6 7-2.6 7l4.2 24.4" opacity=".4"/><path fill="#263238" d="M851.9 56.4c-.4 2.8-2.4 5.3-5.1 6.1-1.5.5-3.2.5-4.7 1.1-1.5.6-2.9 2-2.5 3.6.3 1.2 1.3 1.9 2.2 2.7.9.8 1.7 2 1.2 3.1-.6 1.2-2.3 1.3-3.2 2.3-.9 1-.6 2.7.2 3.8.9 1.1 2.1 1.8 3.3 2.6 1.1.8 2.3 1.8 2.5 3.2"/><path fill="#263238" d="M906.7 80.4c4.1-8.6 1.1-19.3-5.2-26.4S886 42.9 876.9 40.3c-1.3-.4-2.9-.7-3.9.4-.8.9-.6 2.4.2 3.3.8.9 1.9 1.4 3.1 1.8-3.7-1.8-7.8-3.2-11.9-3.2-1.4 0-3 .1-4.2.9-1.2.8-2.1 2.3-1.6 3.7.4 1.4 2.4 2.2 3.4 1.2-3.9-.4-8 .5-11.3 2.6-2.4 1.5-4.5 4.1-4 6.9.3 1.6 1.5 2.9 2.1 4.5 1 2.9-.5 5.9-1.5 8.7-1.7 4.4-2.7 9.2-1.9 13.8.7 4.6 3.3 9.1 7.4 11.5"/><path fill="#FFBE9D" d="M850 152.8c-10.3-2.7-16.3-13.4-13.3-23.6l17-57.4c3.9-14.8 19.3-23.4 33.9-19l1.3.5c13.4 4.8 20.8 19.1 17.1 32.9-3.5 12.8-7.5 26.9-10 33.5-5.2 13.7-19.7 10.9-19.7 10.9l-3.6 10.3c-3.2 9.2-13.1 14.5-22.7 11.9z"/><path fill="#EB996E" d="M876.4 130.3s-9-2.4-16.1-11.6c0 0 .7 11.5 14.9 15.2l1.2-3.6z"/><path fill="#263238" d="M873.8 61.1c-1.1-2.5-2.6-7.9-4.5-9.8-1.9-1.9-5-1.3-7.7-.6-2.7.8-4.9 2.8-5.9 5.5-3.6 9.9-4.1 19.3-6.8 29.1-.2.6-.4 1.3-.2 2 .5 1.7 2.3 2.2 4 2.5 4.2.6 6.4-2.5 8.4-6.2.4-.8 1.4-5.9 1.5-6.9.6-6.6 4.4-12.5 10.4-15.3l.8-.3z"/><path fill="#FFBE9D" d="M856.1 79.7c-.2-.2-8.5-6.2-11.6 3.3-3.1 9.5 7.1 10.7 7.2 10.4.2-.2 4.4-13.7 4.4-13.7z"/><path fill="#EB996E" d="M850 88.9s-.2.1-.5.1-.8 0-1.3-.4c-.9-.7-1.2-2.6-.7-4.3.3-.9.7-1.6 1.2-2.2.5-.6 1.1-.9 1.7-.9.5 0 .8.5.8.8 0 .3-.1.5 0 .5 0 0 .3-.1.3-.5 0-.2 0-.5-.2-.7-.2-.3-.5-.5-.8-.5-.8-.2-1.6.3-2.2.9-.6.6-1.2 1.5-1.4 2.5-.6 1.9-.2 4.1 1.1 4.9.6.4 1.2.4 1.6.2.3-.2.5-.4.4-.4z"/><path fill="#263238" d="M870.2 63.2c4.7-3.2 9.5-1.6 12.8.3 3.2 1.9 6 4.5 9.3 6.3 3.3 1.7 7.7 2.3 10.6 0 2.2-1.7 3.1-4.6 3.4-7.3.5-5.3-1.3-10.8-4.8-14.8-.9-1-2.3-2.1-3.6-1.5-1.6.7-1.3 3-.8 4.6 0 0-16-5.9-25.8-2.5-9.9 3.4-1.1 14.9-1.1 14.9z"/><path fill="#455A64" d="M876.2 40.1c.1 0 .2.7.7 1.8.5 1.1 1.5 2.7 3.1 4.3 1.6 1.6 3.7 3.2 6.4 4.5 1.3.6 2.8 1.1 4.4 1.5 1.6.3 3.3.6 5 1.1 1.7.5 3.3 1.2 4.6 2.3 1.3 1.1 2.2 2.5 2.8 4 .6 1.5.8 3 .6 4.4-.2 1.4-.7 2.6-1.4 3.6-1.3 2-3.1 2.9-4.3 3.2-.6.2-1.1.2-1.5.2h-.5c0-.1.7-.1 1.9-.5 1.1-.4 2.8-1.4 4-3.3.6-.9 1-2.1 1.2-3.3.1-1.3-.1-2.7-.6-4-.5-1.3-1.4-2.6-2.6-3.6-1.2-1-2.7-1.7-4.3-2.2-1.6-.5-3.3-.7-4.9-1.1-1.6-.3-3.2-.9-4.5-1.6-2.7-1.4-4.9-3.1-6.5-4.8-1.6-1.7-2.5-3.3-2.9-4.6-.2-.6-.3-1.1-.3-1.4-.4-.3-.4-.5-.4-.5z"/><path fill="#455A64" d="M865.6 43c.1 0 .2.7.8 1.9.6 1.2 1.6 2.8 3.3 4.4 1.7 1.6 4.1 3 7.1 4 2.9 1 6.3 1.6 9.9 2.3 3.6.7 7 1.4 9.9 2.8 1.4.8 2.7 1.9 3.2 3.3.6 1.4.5 2.8.2 4-.7 2.4-2.3 3.8-3.4 4.5-.6.4-1 .6-1.4.7-.3.1-.5.2-.5.2 0-.1.6-.4 1.7-1.2 1-.8 2.5-2.2 3-4.4.2-1.1.2-2.4-.3-3.6-.5-1.2-1.6-2.2-3-2.9-2.7-1.3-6.2-2-9.7-2.7-3.5-.7-7-1.3-10-2.4-3-1.1-5.5-2.6-7.2-4.3-1.7-1.7-2.7-3.4-3.2-4.7-.2-.6-.4-1.1-.4-1.5V43z"/><path fill="#263238" d="M896.9 92.7c-.4 1.1-1.6 1.8-2.8 1.4-1.2-.3-1.9-1.6-1.5-2.7.4-1.1 1.6-1.8 2.8-1.5 1.1.5 1.8 1.7 1.5 2.8zm4.1-1.2c-.4.2-1.6-1.6-3.9-2.4-2.3-.8-4.4-.2-4.6-.6-.1-.2.4-.6 1.3-.9.9-.3 2.3-.4 3.8.1 1.4.5 2.5 1.5 3 2.2.5 1 .5 1.6.4 1.6zm-27-5.3c-.4 1.1-1.6 1.8-2.8 1.4-1.2-.3-1.9-1.6-1.5-2.7.4-1.1 1.6-1.8 2.8-1.4 1.2.3 1.9 1.5 1.5 2.7zm4.1-2.1c-.4.2-1.6-1.6-3.9-2.4-2.3-.8-4.4-.2-4.6-.6-.1-.2.4-.6 1.3-.9.9-.3 2.3-.4 3.8.1 1.4.5 2.5 1.5 3 2.2.5.9.6 1.5.4 1.6zm2.4 20c0-.1 1.6.1 4 .6.6.1 1.2.2 1.5-.1.3-.4.3-1.1.2-1.9-.1-1.6-.1-3.3-.2-5.1-.2-7.2-.1-13.1.2-13.1.3 0 .7 5.9.9 13.1 0 1.8.1 3.5.1 5.1 0 .7.1 1.6-.5 2.4-.3.4-.9.6-1.3.5-.4 0-.8-.1-1.1-.2-2.3-.6-3.8-1.1-3.8-1.3zm-7.3-.7c.4.1-.5 2.6 1 5.1 1.5 2.5 4.3 3.2 4.2 3.5 0 .2-.8.3-1.9-.1-1.1-.3-2.6-1.3-3.5-2.8-.9-1.5-1-3.2-.7-4.3.2-1 .7-1.5.9-1.4zm8.6-28.2c-.4.5-2.7-.6-5.5-1.2-2.8-.7-5.3-.6-5.4-1.3-.1-.3.5-.8 1.6-1.1 1.1-.3 2.7-.4 4.4 0 1.7.4 3.1 1.2 3.9 1.9.9.8 1.2 1.5 1 1.7zm20.6 9.4c-.6.4-2-.7-3.9-1.4-1.9-.8-3.7-.9-3.8-1.6-.1-.3.4-.8 1.2-1 .9-.3 2.2-.3 3.5.2 1.3.5 2.3 1.4 2.8 2.1.5.8.5 1.5.2 1.7z"/><path fill="#455A64" d="M858.9 289.6c5.5 1.8 6.6 7.7 5.9 10.4l-12.5 4.9-2.9-12 9.5-3.3z"/><path fill="#455A64" d="M754.1 289.5s25-2.6 40.7 2.9c15.7 5.5 35.2 9.6 43.9 7.7 7.5-1.7 11.8-7.3 11.8-7.3s-24.9-3-36.6-6.8c-7.9-2.6-23.5-20.2-52.3-16l-7.5 19.5z"/><path fill="#455A64" d="M854.2 298.6c-.8-2.3-2.3-4.3-4-6l.2.3c-2.6.2-5.2.4-7.8 1.1-2.5.7-4.9 2-6.6 4.1-.5.7-1 1.5-.9 2.3.1 1.1 1.1 2 2 2.7 2.4 1.9 4.9 3.8 7.9 4.7 3 .8 6.5.3 8.4-2.2 1.5-2 1.6-4.7.8-7z"/><path fill="#263238" d="M836.1 297.7s.1-.6.8-1.4c.7-.8 2-1.7 3.7-2.3 1.8-.6 4.1-1 6.5-.6 2.5.4 5.1 1.8 6.7 4.3.8 1.2 1.2 2.7 1 4.1-.1 1.4-.6 2.7-1.4 3.7-.8 1-1.8 1.7-2.9 2.1-1.1.4-2.1.4-3.1.4-1.9-.2-3.3-.7-4.3-1.1-.5-.2-.9-.4-1.1-.5l-.4-.2s.1 0 .4.1c.4.1.7.3 1.1.4 1 .3 2.4.8 4.3.9 1.8.1 4.2-.4 5.6-2.4 1.5-1.9 1.8-4.9.3-7.3-1.5-2.4-4-3.8-6.4-4.2-2.4-.4-4.6-.1-6.4.5-1.8.5-3 1.4-3.7 2.2-.5.8-.7 1.3-.7 1.3z"/><path fill="#FAFAFA" d="M841.4 298.1s-.6-.7-1.5-1.3c-.9-.6-1.8-.9-1.7-.9 0 0 .9.1 1.9.8.8.6 1.3 1.4 1.3 1.4zm4 .2s-.6-.6-1.4-1.2c-.8-.6-1.5-1.1-1.4-1.1 0 0 .8.3 1.6 1 .8.6 1.3 1.3 1.2 1.3zm1.7 8.6s-.1-.4-.3-1.1c-.2-.7-.6-1.5-1.1-2.4-.6-.9-1.3-1.5-1.8-2-.5-.4-.9-.7-.9-.7s.4.2 1 .6c.6.4 1.3 1.1 1.9 2 .6.9.9 1.8 1.1 2.5.1.6.1 1.1.1 1.1zm4.1-3.2v-1.1c0-.7 0-1.6-.2-2.6s-.5-1.9-.7-2.5c-.2-.6-.4-1-.4-1l.2.2c.1.2.2.4.4.7.3.6.6 1.5.8 2.5.2 1 .2 1.9.1 2.6 0 .3-.1.6-.1.8-.1.3-.1.4-.1.4z"/><path fill="#263238" d="M851.2 296c0 .1-2.8.8-5.6 2.9-2.9 2-4.5 4.4-4.6 4.4 0 0 .3-.7 1-1.6.7-.9 1.9-2.1 3.3-3.1 1.5-1 2.9-1.7 4-2.1 1.1-.4 1.9-.5 1.9-.5zm-6.2-2c.1.1-2.1 1.3-3.4 3.9-1.4 2.5-1.2 5-1.3 5 0 0-.2-.6-.1-1.6s.4-2.3 1.1-3.6c.7-1.3 1.7-2.3 2.4-2.9.7-.6 1.3-.8 1.3-.8z"/><path fill="#263238" d="M851.8 307c-.1 0-.1-.6-.5-1.5s-1.1-2-2.2-3c-2.2-1.9-4.5-2.8-4.4-3 0 0 .6.2 1.5.6.9.4 2.1 1.1 3.2 2.1s1.9 2.2 2.2 3.2c.3.9.3 1.6.2 1.6zm-52.4-13.3c0 .1-.9-.1-2.5-.5-1.6-.3-3.8-.8-6.6-1.4-5.6-1.1-13.5-2.2-22.2-2.6-4.3-.2-8.5 0-12.1 1-3.6 1-6.6 2.6-8.8 4.4-4.5 3.5-6.1 6.8-6.3 6.7 0 0 .3-.8 1.2-2.2.9-1.3 2.4-3.2 4.6-5 2.2-1.8 5.3-3.6 9-4.7s8-1.3 12.4-1.1c8.8.4 16.7 1.6 22.3 2.9 2.8.6 5.1 1.2 6.6 1.7 1.6.5 2.4.8 2.4.8z"/><path fill="#263238" d="M615.6 268.7s.4-.4 1.3-1 2.2-1.4 4.1-2.2c3.6-1.6 9.7-3 16.8-1.3 3.5.8 7.2 2.6 10.4 5.4 3.3 2.8 6.1 6.4 8.8 10.2 2.7 3.9 5.5 8 8.8 11.8 3.3 3.9 7 7.7 11.1 11.3 8.2 7.1 17 12.9 25.9 15.8 4.4 1.5 8.9 2.2 13 2.2 4.2 0 8-.8 11-2.7 3-1.8 5.1-4.3 6.9-6.5 1.7-2.2 3.1-4.3 4.2-5.9 1.1-1.6 1.9-2.9 2.5-3.8.6-.9.9-1.3.9-1.3s-.2.5-.8 1.4c-.6 1-1.4 2.3-2.4 3.9-1 1.7-2.4 3.8-4.1 6.1-1.7 2.3-3.8 4.8-6.9 6.8-3.1 2-7.1 2.9-11.4 2.9-4.2.1-8.8-.7-13.3-2.1-9.1-2.9-18.1-8.7-26.3-15.9-4.1-3.6-7.9-7.5-11.2-11.4-3.4-3.9-6.2-8.1-8.8-11.9-2.7-3.9-5.4-7.4-8.6-10.1-3.1-2.7-6.7-4.5-10.1-5.3-6.9-1.8-12.8-.5-16.5 1-3.5 1.2-5.2 2.7-5.3 2.6z"/><path fill="#FAFAFA" d="M661.7 252.3s-.5 0-1.3.1c-.8 0-2.1.1-3.5.3-3 .3-7.1 1.1-11.3 2.8-4.3 1.7-7.9 3.8-10.3 5.5-1.2.9-2.2 1.6-2.8 2.2-.6.5-1 .8-1 .8s1.3-1.3 3.7-3.1c2.4-1.8 6-4 10.3-5.6 4.3-1.6 8.4-2.4 11.4-2.7 2.9-.4 4.8-.3 4.8-.3zm29.6 18s-.5.1-1.4.2c-.9.1-2.1.3-3.7.6-3.1.6-7.3 1.8-11.6 3.9-4.3 2.1-7.9 4.6-10.3 6.6-1.2 1-2.2 1.9-2.8 2.5-.6.6-1 .9-1 .9s1.3-1.5 3.7-3.5c2.4-2.1 6-4.6 10.3-6.7 4.4-2.1 8.6-3.3 11.7-3.9 3.2-.6 5.1-.6 5.1-.6zm-.9 42s-.1-.5-.3-1.4c-.1-.9-.2-2.3-.1-3.9.1-3.3 1.3-7.9 3.8-12.3s5.5-7.9 7.7-10.4 3.6-3.9 3.6-3.9-.3.4-.9 1.1c-.8.9-1.6 1.8-2.6 2.9-2.2 2.5-5.1 6-7.6 10.4s-3.6 8.9-3.8 12.2c-.1 1.6 0 3 .1 3.9 0 .5.1.8.1 1.1v.3zm32.5-18.6s-.2-.5-.5-1.4c-.2-.9-.5-2.2-.5-3.6s.2-2.7.4-3.6c.2-.9.4-1.4.4-1.4s-.1.6-.3 1.5c-.2.9-.3 2.2-.3 3.6s.2 2.7.4 3.6c.3.7.5 1.3.4 1.3zm5.7 22.5s-1.2-.7-3-2.2c-1.7-1.5-3.9-3.8-5.8-6.8-1.8-3-2.9-6-3.4-8.2-.5-2.2-.6-3.6-.6-3.6s.1.3.2 1c.1.6.3 1.5.6 2.6.6 2.2 1.7 5.2 3.5 8.1 1.8 3 4 5.3 5.7 6.8.9.8 1.6 1.3 2.1 1.7.5.4.7.6.7.6zm25-25.5s-.9-.4-2.4-1.3c-1.5-.8-3.4-2.1-5.4-3.7-2-1.6-3.7-3.2-4.8-4.4-1.2-1.2-1.8-2-1.8-2l.5.5c.5.5.9 1 1.4 1.4 1.2 1.2 2.9 2.8 4.9 4.4 2 1.6 3.9 2.9 5.4 3.7.6.3 1.1.7 1.7 1 .2.2.5.4.5.4zm17.7-2.5v-.7c0-.7-.1-1.3-.1-2-.1-1.7-.3-4-.6-6.5s-.8-4.8-1.2-6.5c-.1-.6-.3-1.3-.4-1.9-.1-.5-.1-.7-.1-.7s.1.2.2.7c.1.5.3 1.1.5 1.9.4 1.6.9 3.9 1.2 6.5.3 2.5.5 4.9.5 6.5v2.7zm23-12.6v.6c-.1.6-.1 1.1-.2 1.6-.2 1.4-.4 3.3-.9 5.4-.4 2.1-.9 3.9-1.3 5.3-.2.5-.3 1-.5 1.6-.1.4-.2.6-.2.6s0-.2.1-.6c.2-.5.3-1.1.4-1.6.4-1.3.8-3.2 1.3-5.3.4-2.1.7-4 .9-5.3.1-.5.1-1.1.2-1.6s.2-.7.2-.7z"/><ellipse transform="rotate(101.73 810.59 287.836)" fill="#FAFAFA" cx="810.6" cy="287.8" rx="3.1" ry=".1"/><path fill="#FAFAFA" d="M835.9 299.4s.1-.5.2-1.2c.1-.8.1-1.8.2-3V291s.1.5.1 1.3.1 1.9 0 3c0 1.2-.1 2.3-.2 3-.2.7-.3 1.1-.3 1.1z"/><path fill="#455A64" d="M840.8 305.4c-2-8-10.3-13.2-18.4-14.5-8.2-1.3-16.5.4-24.7 1.4-8.2 1-17 1.3-24.4-2.5-2.3 4.3-3.5 9.2-3.4 14.1 1.4 0 2.9.1 4.3.1.9 6.2 6.6 11 12.8 12.4 6.2 1.4 10.2 1.4 16-1.1 6.1-2.6 13.9-6.7 19.8-8.8 5.9-2.1 12.5-3.1 18.5-1.2"/><path fill="#263238" d="M777.5 291.8c.1 0-.3.7-.7 1.7-.5 1.1-1 2.6-1.5 4.3-.5 1.7-.8 3.3-.9 4.4-.1 1.2-.1 1.9-.2 1.9 0 0-.1-.7-.1-1.9.1-1.2.3-2.8.8-4.5.5-1.7 1.1-3.2 1.6-4.3.6-1 1-1.6 1-1.6z"/><path fill="#263238" d="M774.5 300.5c0 .1-1-.1-2.3-.2-1.2-.1-2.3-.2-2.3-.3 0-.1 1-.2 2.3-.1 1.3.1 2.3.5 2.3.6zm.9-5c-.1.1-.9-.5-2-.9s-2.1-.4-2.1-.5c0-.1 1-.3 2.2.2 1.3.3 2 1.1 1.9 1.2zm8.6-2.7h5c3.2 0 7.8-.3 13.5-1.4 5.6-1.1 12.6-1.8 20.3-.6 3.8.7 7.7 2 11.2 4.5 3.4 2.5 6.4 6 7.7 10.4l.1.4-.4-.2c-1.7-.8-3.6-1.4-5.6-1.5-4.8-.4-9.4 1-13.7 2.5-4.3 1.5-8.4 3.2-12.1 4.9-1.9.9-3.7 1.8-5.6 2.5-1.8.8-3.6 1.6-5.4 2-3.6.9-7.2.9-10.3.4-3.1-.5-5.9-1.6-8-3-2.1-1.4-3.5-3.1-4.5-4.6-.9-1.5-1.4-2.8-1.6-3.7-.2-.9-.3-1.4-.3-1.4.1 0 .2 2 2.1 5 .9 1.5 2.4 3.2 4.5 4.5 2.1 1.4 4.8 2.5 7.9 2.9 3.1.5 6.6.4 10.2-.4 1.8-.4 3.6-1.2 5.4-2 1.8-.8 3.7-1.7 5.6-2.6 3.8-1.8 7.8-3.5 12.2-5 4.3-1.4 9-2.8 13.9-2.5 2 .2 4 .7 5.7 1.6l-.3.2c-1.3-4.3-4.2-7.8-7.5-10.2-3.4-2.4-7.3-3.8-11-4.5-7.6-1.3-14.5-.6-20.2.5-5.7 1.1-10.3 1.3-13.5 1.3-3.5.2-5.3 0-5.3 0z"/><path fill="#FAFAFA" d="M783.7 315.3s-.1-.3-.3-.8c-.2-.5-.4-1.4-.6-2.4-.4-2-.8-4.9-.5-8.1.2-3.2.9-6 1.7-7.9.4-1 .7-1.7.9-2.3.3-.5.4-.8.4-.8.1 0-.5 1.2-1.1 3.1-.6 1.9-1.3 4.7-1.5 7.8-.2 3.1.1 6 .4 8 .3 2.2.7 3.4.6 3.4zm16-10.8c.1 0 .1.6.3 1.6.2 1 .4 2.3.8 3.7.8 2.9 1.5 5.2 1.4 5.2 0 0-.3-.5-.6-1.5-.3-.9-.8-2.2-1.1-3.7-.4-1.4-.6-2.8-.7-3.8-.2-.9-.1-1.5-.1-1.5zm-2.3-6.3c.1 0 .1 1.4.2 3s.4 3 .3 3c-.1 0-.5-1.3-.7-3-.1-1.7.1-3 .2-3zm4-6.5c.1 0-.4 1.2-.7 2.8-.3 1.5-.3 2.8-.4 2.8-.1 0-.3-1.3 0-2.9.3-1.6 1-2.7 1.1-2.7zm12.8 3.6c-.1.1-.8-.8-1.2-2.2-.3-1.4-.1-2.5 0-2.5s0 1.1.3 2.4c.4 1.3 1 2.3.9 2.3zm9.9 10.4s-.5-.5-1.1-1.5c-.6-.9-1.3-2.3-2-3.9s-1.1-3-1.4-4.1c-.3-1.1-.4-1.8-.3-1.8.1 0 .2.6.6 1.7.3 1.1.8 2.5 1.5 4s1.4 2.9 1.9 3.9c.5 1.1.8 1.7.8 1.7zm2.8-13.4c.1.1-.3.4-.6.8s-.5.8-.6.8c-.1 0-.1-.5.3-1 .3-.5.8-.7.9-.6z"/><path fill="#FAFAFA" d="M841.5 306.1l-.5-.5c-.3-.3-.9-.7-1.6-1.2-1.5-1-3.8-2.1-7-2.5-3.1-.4-6.9-.1-10.9 1.2-4 1.2-8.1 3.2-12.5 5.2s-8.8 3.4-13 3.8c-4.2.4-8-.1-11-1-3.1-.8-5.4-1.9-6.9-2.8-.8-.4-1.4-.8-1.7-1 .4.3 1 .6 1.8 1 1.6.8 3.9 1.9 6.9 2.7 3 .8 6.8 1.3 11 .9 4.2-.3 8.6-1.8 13-3.8 4.4-1.9 8.5-4 12.6-5.2 4-1.2 7.8-1.6 11-1.2 3.2.4 5.5 1.6 7 2.5 1.1 1.1 1.8 1.9 1.8 1.9zm-30.8-8.7s-.5.2-1.3.6c-.8.4-2.1.8-3.6 1.4-3.1 1-7.6 2.2-12.6 2.1-5 0-9.5-1.2-12.6-2.1-3.1-.9-5.1-1.6-5.1-1.6s.5.1 1.4.4c1.1.3 2.3.7 3.7 1.1 3.1.9 7.6 2 12.6 2.1 5 .1 9.5-1 12.6-2 1.6-.5 2.8-1 3.6-1.3.8-.6 1.3-.7 1.3-.7zm18.7-2s-.2-.1-.4-.3c-.3-.2-.7-.5-1.3-.8-1.2-.6-3-1.4-5.3-1.8-2.3-.4-5.2-.6-8.3-.3-3.1.3-6.5 1-10.1 1.7-7.1 1.5-13.8 1.2-18.5.5-4.7-.7-7.6-1.4-7.6-1.4s.7.1 2 .4c1.3.2 3.2.6 5.6.9 4.7.6 11.3.9 18.5-.6 3.6-.7 7-1.4 10.1-1.7 3.1-.3 6-.2 8.3.3 2.3.5 4.1 1.2 5.3 1.9 1.1.7 1.7 1.2 1.7 1.2z"/><path fill="#263238" d="M841 305.1c-.2.1-1.5-2.6-5.1-5.6-1.8-1.5-4.2-2.9-7.1-3.8-2.9-.9-6.3-1.2-9.8-.6-3.5.6-6.5 2.1-9.2 3.7-2.7 1.6-5.1 3.1-7.2 4.1-2.1 1-4 1.6-5.3 1.8-.7.1-1.2.1-1.5.1h-.5c0-.2 3-.3 7.1-2.5 2.1-1.1 4.4-2.6 7.1-4.2 2.7-1.6 5.8-3.3 9.5-3.9 3.6-.6 7.2-.3 10.2.7 3 1 5.5 2.6 7.3 4.1 1.8 1.6 3 3.1 3.7 4.2.6 1.2.9 1.9.8 1.9z"/><path fill="#263238" d="M815.4 295.7c.1.2-4.8 2.1-11.3 2.5-6.4.5-11.6-.6-11.5-.9 0-.3 5.2.4 11.4-.1 6.3-.4 11.3-1.8 11.4-1.5z"/><path fill="#FAFAFA" d="M806.2 290c-.4-.2-1-.4-2.1-.9-1.4-.6-3.4-1.4-6-2.4-5.3-1.9-13.2-4.5-23.2-4.8-5-.2-10.6.4-16.2 2.1-5.6 1.7-11.4 4.7-16.1 9.4-4.8 4.6-8.8 10.4-14.4 15.2-2.8 2.4-6 4.3-9.7 5.2-3.7.9-7.6.5-11.3-.7-3.7-1.2-7-3.2-9.9-5.5-2.9-2.4-5.4-5.2-7.6-8-4.4-5.8-8-11.8-12-17.1-4-5.3-8.3-10-12.8-13.8-4.5-3.8-9.3-6.8-13.9-8.6-9.4-3.8-17.9-3.6-23.3-2.3-2.8.6-4.8 1.5-6.1 2.1l-2 1c.4-.2 1-.5 2-1.1 1.4-.6 3.4-1.5 6.1-2.1 5.4-1.3 14-1.5 23.4 2.3 4.7 1.9 9.4 4.8 14 8.6 4.5 3.8 8.8 8.5 12.8 13.9 4 5.3 7.6 11.4 12 17.1 2.2 2.9 4.7 5.6 7.6 8 2.9 2.4 6.2 4.3 9.9 5.5 3.6 1.2 7.5 1.5 11.2.7 3.6-.9 6.9-2.8 9.6-5.1 5.5-4.7 9.5-10.5 14.4-15.1 4.7-4.7 10.5-7.8 16.2-9.5 5.7-1.7 11.3-2.3 16.3-2.1 10.1.4 18 3 23.3 4.9 5 1.7 7.8 3.1 7.8 3.1z"/><path fill="#FAFAFA" d="M715.6 295.4s-1 .1-2.9-.1c-1.9-.3-4.5-1.1-7.3-3s-5.6-4.9-8.2-8.5c-2.6-3.6-5.2-7.8-8.6-11.6-6.7-7.8-14.5-13.1-20.4-16.3-3-1.6-5.5-2.6-7.2-3.3-1.8-.7-2.7-1-2.7-1s1 .3 2.8 1c1.8.7 4.3 1.7 7.3 3.3 6 3.1 13.8 8.4 20.5 16.3 3.4 3.9 6 8.1 8.6 11.7 2.6 3.6 5.3 6.6 8.1 8.5 2.8 1.9 5.4 2.8 7.3 3.1.9.1 1.7.2 2.2.2.2-.3.5-.3.5-.3zm85-15.6l-.6-.3c-.4-.2-.9-.5-1.6-.9-1.4-.8-3.5-1.8-6.1-2.9-5.3-2.2-13.1-4.2-21.8-3.9-8.8.3-16.4 2.8-21.6 5.3-2.6 1.2-4.6 2.4-5.9 3.3-.7.4-1.2.8-1.5 1-.4.2-.5.3-.5.3s.7-.5 2-1.4c1.3-.9 3.3-2.1 5.9-3.3 5.1-2.5 12.8-5.1 21.6-5.3 8.8-.3 16.6 1.8 21.9 4 2.7 1.1 4.7 2.2 6.1 3 1.4.6 2.1 1.1 2.1 1.1z"/><path fill="#FAFAFA" d="M763.1 288s-.1-.3-.2-.7c-.1-.5-.3-1.1-.6-2-.5-1.7-1.4-3.9-2.6-6.3-1.2-2.4-2.5-4.4-3.5-5.9-.5-.7-.9-1.3-1.2-1.7-.3-.4-.4-.6-.4-.6s.7.8 1.8 2.2c1 1.4 2.3 3.5 3.5 5.9 1.2 2.4 2 4.7 2.6 6.4.4 1.7.6 2.7.6 2.7zm19.6-17.1s.1 1 .1 2.7c0 1.7-.1 4-.4 6.5-.4 2.5-.9 4.8-1.4 6.4-.5 1.6-.9 2.5-.9 2.5s.1-.3.2-.7c.2-.6.4-1.3.6-1.9.5-1.6 1-3.8 1.4-6.3.4-2.5.5-4.8.5-6.5v-2c-.1-.5-.1-.7-.1-.7zm-42.6 31.3s-.9-.5-2.2-1.4c-1.3-.9-3-2.3-4.7-4-1.7-1.7-3.1-3.4-4-4.7-.9-1.3-1.4-2.2-1.4-2.2s.2.2.4.6c.2.4.6.9 1.1 1.5.9 1.3 2.3 3 4 4.7 1.7 1.7 3.4 3.1 4.7 4 .6.5 1.2.8 1.5 1.1.4.2.6.4.6.4zm-28.5-5.7s-.2-.7-.4-1.9-.4-2.9-.2-4.8c.1-1.9.5-3.5.8-4.7.3-1.2.7-1.9.7-1.9s0 .2-.1.5-.2.8-.4 1.4c-.3 1.2-.6 2.8-.8 4.7-.1 1.8 0 3.5.2 4.7.1.6.2 1.1.2 1.4v.6zm-.1 23.9s-.6-1.1-1.4-3c-.8-1.9-1.7-4.6-2.3-7.6-.6-3.1-.8-5.9-.9-7.9 0-2 .1-3.3.1-3.3v3.3c.1 2 .3 4.8.9 7.9.6 3 1.5 5.7 2.2 7.6.4.9.7 1.7.9 2.2.4.5.5.8.5.8zm21.7-38.5c.1 0 0 .7.3 1.4.3.8.7 1.3.7 1.3s-.6-.4-.9-1.2c-.2-.8-.1-1.5-.1-1.5zm-36-6.9s-.4.2-1.2.7c-.8.4-1.9 1-3.2 1.9-2.7 1.6-6.3 4.1-9.9 7.3-3.6 3.2-6.4 6.5-8.3 9.1-1 1.3-1.7 2.3-2.2 3-.5.7-.8 1.1-.8 1.1s1-1.7 2.9-4.2 4.7-5.9 8.3-9.1c3.6-3.2 7.2-5.7 9.9-7.3 2.7-1.7 4.5-2.5 4.5-2.5zm-22.3-18.5l-1.2.3c-.7.2-1.8.4-3.1.8-2.6.7-6.2 1.9-10 3.7-3.8 1.8-7 3.7-9.3 5.2-1.1.8-2 1.4-2.6 1.9-.6.5-1 .7-1 .7s1.3-1.1 3.5-2.7 5.5-3.5 9.3-5.3c3.8-1.7 7.4-2.9 10.1-3.6 2.7-.8 4.3-1 4.3-1z"/><ellipse transform="rotate(-76.42 825.482 290.16)" fill="#FAFAFA" cx="825.5" cy="290.1" rx="1.2" ry=".1"/><path fill="#FFBE9D" d="M909.6 288.2s8.3 1.7 11.9 2.5c1.2.3 2.3.1 3.5.3 5.7 1 13.4.5 15.4-.3 3.5-1.3 3.7 3.2-.1 5.2-3.8 1.9-6.1 2.2-6.1 2.2l9.2 7.4c.5.4.8.9.9 1.5l2.3 16.3c.3 1.4-.5 2.8-1.8 3.2-.7.2-1.3.1-1.8-.6l.3 2.2c.4 3.6-5 4.5-5.7 1v-.1l-3.2 1.8s-2.1 2.2-4.5-.9c-1.9-2.5-7.6-12.7-7.6-12.7s-24.4-10.3-24-14.4l11.3-14.6z"/><path fill="#EB996E" d="M937.7 328.9c-.1 0-.3-1.5-.7-3.9-.4-2.4-1.1-5.8-1.6-9.5-.3-1.8-.8-3.6-1.2-5.1-.3-.7-.7-1.2-1.3-1.5-.6-.4-1.2-.7-1.7-1.1-2.1-1.3-3.3-2.2-3.3-2.3.1-.1 1.4.6 3.6 1.7.6.3 1.2.6 1.8 1 .7.3 1.4 1 1.7 1.9.5 1.7.9 3.3 1.3 5.2.5 3.8 1.1 7.1 1.3 9.6.3 2.5.2 4 .1 4zm5.3-3.1c-.4.1-1-5.8-2.5-12.9-.4-1.8-.7-3.5-1.6-4.6-1-1.1-2.1-2.1-3-2.8-.9-.7-1.7-1.3-2.3-1.6-.6-.3-.9-.4-.9-.5 0-.1.4-.1 1.1.1.7.2 1.5.7 2.5 1.4s2.1 1.6 3.2 2.8c1.2 1.4 1.4 3.2 1.8 5 .8 3.6 1.2 6.9 1.4 9.2.4 2.4.4 3.9.3 3.9zm-19.9-15.4c.1-.1 1.3.5 3.2 1.5.5.3 1 .6 1.6.9.5.3 1.2.6 1.8 1.3.6.6.8 1.4 1 2.2.2.8.5 1.5.7 2.3 1.9 6.3 3.3 11.5 3 11.6-.3.1-2-5-4-11.3-.2-.8-.5-1.6-.7-2.3-.2-.8-.4-1.4-.8-1.9s-.9-.8-1.5-1.2c-.5-.3-1-.6-1.5-1-1.7-1.2-2.8-2-2.8-2.1zm.7-17.6c.1-.4 3.6 1 7.4 3.2 3.9 2.2 6.7 4.6 6.5 4.8-.1.2-3.1-1.8-7-4-1.7-1-3.2-1.8-4.9-2.8-1.3-.7-2-1.1-2-1.2z"/><path d="M593.2 74.3c-1.7 1.7-3.9 2.8-6.4 3.3-4.4.9-8.8-.5-11.8-3.8-2.3-2.5-5.7-3.6-9.1-2.9-3.3.7-6.1 3-7.3 6.2l-4.7 12.6c-1.6 4.2-5.1 7.2-9.5 8.1-4.4.9-8.8-.5-11.8-3.8l-.4-.4c-2.3-2.5-5.7-3.6-9.1-2.9-3.4.7-6.1 3-7.3 6.2l-5 13.4c-1.6 4.2-5.1 7.2-9.5 8.1-4.4.9-8.8-.5-11.8-3.8l-.6-.7c-2.3-2.4-5.4-3.5-8.7-3-3.3.5-5.9 2.5-7.3 5.5l-2.7-1.3c1.8-3.9 5.4-6.5 9.6-7.2 4.2-.7 8.4.8 11.3 3.9l.6.7c2.3 2.5 5.7 3.6 9.1 2.9 3.4-.7 6.1-3 7.3-6.2l5-13.4c1.6-4.2 5.1-7.2 9.5-8.1 4.4-.9 8.8.5 11.8 3.8l.4.4c2.3 2.5 5.7 3.6 9.1 2.9 3.4-.7 6.1-3 7.3-6.2l4.7-12.6c1.6-4.2 5.1-7.2 9.5-8.1 4.4-.9 8.8.5 11.8 3.8 2.3 2.5 5.7 3.6 9.1 2.9 3.4-.7 6.1-3 7.3-6.2l2.8 1c-.8 2-1.9 3.6-3.2 4.9zm237.4 470.9c-2.9 0-5.7-.8-8.2-2.5-4.5-2.9-7.1-7.8-7-13.1.1-4.1-1.9-7.8-5.4-10.1-3.4-2.2-7.7-2.5-11.4-.7l-14.5 6.9c-4.8 2.3-10.4 1.9-14.8-1-4.5-2.9-7.1-7.8-7-13.1v-.7c.1-4.1-1.9-7.8-5.4-10.1-3.4-2.2-7.7-2.5-11.4-.7l-15.4 7.3c-4.8 2.3-10.4 1.9-14.8-1-4.5-2.9-7.1-7.8-7-13.1v-1.1c.1-4-1.7-7.5-5-9.8-3.2-2.3-7.2-2.8-10.9-1.4l-1.3-3.3c4.7-1.8 10.1-1.1 14.2 1.8 4.2 2.9 6.6 7.7 6.5 12.8v1.1c-.1 4.1 1.9 7.8 5.4 10.1 3.4 2.2 7.7 2.5 11.4.7l15.4-7.3c4.8-2.3 10.4-1.9 14.8 1 4.5 2.9 7.1 7.8 7 13.1v.7c-.1 4.1 1.9 7.8 5.4 10.1 3.4 2.2 7.7 2.5 11.4.7l14.5-6.9c4.8-2.3 10.4-1.9 14.8 1 4.5 2.9 7.1 7.8 7 13.1-.1 4.1 1.9 7.8 5.4 10.1 3.4 2.2 7.7 2.5 11.4.7l1.5 3.2c-2.1 1-4.3 1.5-6.6 1.5zm-367.9 46.5c5.9 2.1 11.2 5.6 15.7 10.2l-2.1 2.1c-7.4-7.5-17.2-11.7-27.7-11.9-10.5-.1-20.5 3.9-28 11.2-15.5 15.2-15.8 40.2-.6 55.7l-2.1 2.1c-16.3-16.7-16-43.6.7-59.9 8.1-7.9 18.8-12.2 30.1-12.1 4.8.1 9.5.9 14 2.6zm38.8-229.9c-7.4 0-13.4-6-13.4-13.4s6-13.4 13.4-13.4 13.4 6 13.4 13.4c-.1 7.4-6.1 13.4-13.4 13.4zm0-23.8c-5.7 0-10.4 4.7-10.4 10.4s4.7 10.4 10.4 10.4 10.4-4.7 10.4-10.4-4.7-10.4-10.4-10.4zm522.2-222.1c-7.4 0-13.4-6-13.4-13.4s6-13.4 13.4-13.4 13.4 6 13.4 13.4-6 13.4-13.4 13.4zm0-23.8c-5.7 0-10.4 4.7-10.4 10.4s4.7 10.4 10.4 10.4 10.4-4.7 10.4-10.4-4.6-10.4-10.4-10.4zm46.8 195.6l-9.6-30-22.6 27.9-2-1.6 25.6-31.6 9.4 29.5 20.9-30.8 9.7 30.8 20.6-30.3 9.6 30.3 18.2-26.8 2.1 1.4-21.2 31.2-9.6-30.2-20.5 30.2-9.8-30.7z" fill="#F3D011"/></svg>