<svg xmlns="http://www.w3.org/2000/svg" width="441" height="626" viewBox="0 0 441 626"><defs><clipPath id="a"><path fill="#fff" d="M353.188.016c-41.147 70.206-148.7 343.766-155.923 351.9l-45.937-118.663C146.295 316.636 49.838 440.8.008 555.671 120.699 666.033 270.82 799.51 347.014 869.015c73.836-70.132 250.79-236.2 354.994-323.134-50.876-112.092-142.057-231.6-146.96-312.628L509.11 351.915C506.098 348.512 382.153 54.14 353.188.015z"/></clipPath></defs><g clip-path="url(#clip-4455)" opacity=".14"><path fill="#dee2e5" d="M353.188.016c-41.147 70.206-148.7 343.766-155.923 351.9l-45.937-118.663C146.295 316.636 49.838 440.8.008 555.671 120.699 666.033 270.82 799.51 347.014 869.015c73.836-70.132 250.79-236.2 354.994-323.134-50.876-112.092-142.057-231.6-146.96-312.628L509.11 351.915C506.098 348.512 382.153 54.14 353.188.015z"/><path fill="none" stroke="#fff" stroke-linecap="round" stroke-linejoin="round" stroke-miterlimit="20" stroke-width="20" d="M353.188.016c-41.147 70.206-148.7 343.766-155.923 351.9l-45.937-118.663C146.295 316.636 49.838 440.8.008 555.671 120.699 666.033 270.82 799.51 347.014 869.015c73.836-70.132 250.79-236.2 354.994-323.134-50.876-112.092-142.057-231.6-146.96-312.628L509.11 351.915C506.098 348.512 382.153 54.14 353.188.015z" clip-path="url(&quot;#a&quot;)"/></g></svg>