<?xml version="1.0" encoding="utf-8"?>
<!-- Generator: Adobe Illustrator 17.1.0, SVG Export Plug-In . SVG Version: 6.00 Build 0)  -->
<!DOCTYPE svg PUBLIC "-//W3C//DTD SVG 1.1//EN" "http://www.w3.org/Graphics/SVG/1.1/DTD/svg11.dtd">
<svg version="1.1" id="Layer_3" xmlns="http://www.w3.org/2000/svg" xmlns:xlink="http://www.w3.org/1999/xlink" x="0px" y="0px"
	 viewBox="240.5 240.5 31 31" enable-background="new 240.5 240.5 31 31" xml:space="preserve">
<g>
	<path d="M271,242.5h-0.8l-1.2-1.2c-0.5-0.5-1.2-0.8-1.9-0.8c-1.2,0-2.3,0.9-2.5,2h-4.4l-1.2-1.2c-0.5-0.5-1.2-0.8-1.9-0.8
		c-1.2,0-2.3,0.9-2.5,2h-4.4l-1.2-1.2c-0.5-0.5-1.2-0.8-1.9-0.8c-1.2,0-2.3,0.9-2.5,2H241c-0.3,0-0.5,0.2-0.5,0.5v17
		c0,0.3,0.2,0.5,0.5,0.5h1.8l1.9,1.9c0.1,0.1,0.2,0.1,0.4,0.1v6h-1.5c-0.3,0-0.5,0.2-0.5,0.5v2c0,0.3,0.2,0.5,0.5,0.5h6
		c0.3,0,0.5-0.2,0.5-0.5v-2c0-0.3-0.2-0.5-0.5-0.5H248v-6c0.1,0,0.3-0.1,0.4-0.1l1.9-1.9h11.6l1.9,1.9c0.1,0.1,0.2,0.1,0.4,0.1v6
		h-1.5c-0.3,0-0.5,0.2-0.5,0.5v2c0,0.3,0.2,0.5,0.5,0.5h6c0.3,0,0.5-0.2,0.5-0.5v-2c0-0.3-0.2-0.5-0.5-0.5H267v-6
		c0.1,0,0.3-0.1,0.4-0.1l1.9-1.9h1.8c0.3,0,0.5-0.2,0.5-0.5v-17C271.5,242.7,271.3,242.5,271,242.5L271,242.5z M267.1,241.5
		c0.4,0,0.8,0.2,1.1,0.5l0.5,0.5h-3.2C265.9,241.9,266.4,241.5,267.1,241.5z M254.5,243.5v1H254h-8h-0.5v-1H254.5z M256.5,246
		c0,0.3-0.2,0.5-0.5,0.5h-2c-0.3,0-0.5-0.2-0.5-0.5s0.2-0.5,0.5-0.5h2C256.3,245.5,256.5,245.7,256.5,246z M246,245.5
		c0.3,0,0.5,0.2,0.5,0.5s-0.2,0.5-0.5,0.5h-2c-0.3,0-0.5-0.2-0.5-0.5s0.2-0.5,0.5-0.5H246z M243.5,247.4c0.2,0.1,0.3,0.1,0.5,0.1h2
		c0.8,0,1.5-0.7,1.5-1.5c0-0.2,0-0.3-0.1-0.5h5.2c-0.1,0.2-0.1,0.3-0.1,0.5c0,0.8,0.7,1.5,1.5,1.5h2c0.8,0,1.5-0.7,1.5-1.5
		c0-0.2,0-0.3-0.1-0.5h5.2c-0.1,0.2-0.1,0.3-0.1,0.5c0,0.8,0.7,1.5,1.5,1.5h2c0.8,0,1.5-0.7,1.5-1.5c0-0.2,0-0.3-0.1-0.5h1.1v12h-25
		V247.4z M266.5,246c0,0.3-0.2,0.5-0.5,0.5h-2c-0.3,0-0.5-0.2-0.5-0.5s0.2-0.5,0.5-0.5h2C266.3,245.5,266.5,245.7,266.5,246z
		 M264,244.5h-8h-0.5v-1h9v1H264z M257.1,241.5c0.4,0,0.8,0.2,1.1,0.5l0.5,0.5h-3.2C255.9,241.9,256.4,241.5,257.1,241.5
		L257.1,241.5z M247.1,241.5c0.4,0,0.8,0.2,1.1,0.5l0.5,0.5h-3.2C245.9,241.9,246.4,241.5,247.1,241.5z M249,270.5h-5v-1h5V270.5z
		 M247,268.5h-1v-6h1V268.5z M247.8,261.5h-2.6l-1-1h4.6L247.8,261.5z M268,270.5h-5v-1h5V270.5z M266,268.5h-1v-6h1V268.5z
		 M266.8,261.5h-2.6l-1-1h4.6L266.8,261.5z M270.5,259.5h-29v-16h3v1H244c-0.8,0-1.5,0.7-1.5,1.5v12c0,0.3,0.2,0.5,0.5,0.5h26
		c0.3,0,0.5-0.2,0.5-0.5v-13c0-0.3-0.2-0.5-0.5-0.5h-3h-0.5v-1h5V259.5z"/>
	<path d="M248,252.5h1v1h-1V252.5z"/>
	<path d="M250,252h1v1h-1V252z"/>
	<path d="M259.2,250.7c-0.9-1.1-2.2-1.7-3.7-1.7c-0.2,0-0.3,0.1-0.4,0.2l-0.9,1.2c-0.1-0.1-0.2-0.3-0.3-0.4l-0.2-0.3
		c-0.9-1.1-2.2-1.7-3.7-1.7c-0.2,0-0.3,0.1-0.4,0.2l-5,6.5c-0.1,0.2-0.1,0.4,0,0.6c0.1,0.2,0.3,0.2,0.4,0.2c0,0,0.1,0,0.1,0l5.9-0.9
		l-0.9,1.1c-0.1,0.2-0.1,0.4,0,0.6c0.1,0.2,0.3,0.2,0.4,0.2c0,0,0.1,0,0.1,0l9.5-1.5c0.2,0,0.4-0.2,0.4-0.5V254
		c0-1.1-0.4-2.2-1.1-3.1L259.2,250.7z M250.2,249c1,0.1,2,0.5,2.7,1.3l0.2,0.3c0.6,0.7,0.9,1.5,0.9,2.4v0l-0.7,0.1
		c-0.2-0.6-0.5-1.2-0.9-1.7l-0.2-0.3c-0.6-0.8-1.5-1.3-2.4-1.5L250.2,249z M249.1,250.5c0.9,0.1,1.7,0.6,2.3,1.3l0.2,0.3
		c0.3,0.4,0.5,0.8,0.7,1.2l-6.1,1L249.1,250.5z M252.4,254.3l2.2-0.3c0.2,0,0.4-0.2,0.4-0.5V253c0-0.5-0.1-1-0.2-1.5
		c0.8,0.2,1.6,0.6,2.1,1.3l0.2,0.3c0.3,0.4,0.5,0.8,0.7,1.2l-6.1,1L252.4,254.3z M259.5,254.1l-0.7,0.1c-0.2-0.6-0.5-1.2-0.9-1.7
		l-0.2-0.3c-0.6-0.8-1.5-1.3-2.4-1.5l0.5-0.7c1,0.1,2,0.5,2.7,1.3l0.2,0.3C259.2,252.3,259.5,253.2,259.5,254.1L259.5,254.1z"/>
	<path d="M255.5,253h1v1h-1V253z"/>
	<path d="M261,249.5h5.5v1H261V249.5z"/>
	<path d="M262,251.5h4.5v1H262V251.5z"/>
	<path d="M262,253.5h4.5v1H262V253.5z"/>
	<path d="M262,255.5h4.5v1H262V255.5z"/>
</g>
</svg>
