<?xml version="1.0" encoding="utf-8"?>
<!-- Generator: Adobe Illustrator 17.1.0, SVG Export Plug-In . SVG Version: 6.00 Build 0)  -->
<!DOCTYPE svg PUBLIC "-//W3C//DTD SVG 1.1//EN" "http://www.w3.org/Graphics/SVG/1.1/DTD/svg11.dtd">
<svg version="1.1" id="Слой_1" xmlns="http://www.w3.org/2000/svg" xmlns:xlink="http://www.w3.org/1999/xlink" x="0px" y="0px"
	 viewBox="241 241 30 30" enable-background="new 241 241 30 30" xml:space="preserve">
<g id="Page-1">
	<g id="_x30_04---Printer">
		<path id="Shape" d="M271,252.8C271,252.8,271,252.8,271,252.8c0-0.1-0.1-0.1-0.1-0.2l-4.3-4.7c-0.6-0.6-1.4-1-2.2-1H262v-5
			c0-0.6-0.4-1-1-1h-10c-0.6,0-1,0.4-1,1v5h-2.4c-0.8,0-1.7,0.4-2.2,1l-4.3,4.7c0,0-0.1,0.1-0.1,0.1c0,0,0,0,0,0c0,0,0,0.1,0,0.1
			c0,0,0,0,0,0v9.5c0,1.7,1.3,3,3,3h3.5l-1.8,2.4c-0.2,0.3-0.3,0.7-0.1,1s0.5,0.6,0.9,0.6h2.9l0,0.1c-0.1,0.3-0.1,0.7,0.1,1
			c0.2,0.3,0.5,0.5,0.8,0.5h11.4c0.3,0,0.7-0.2,0.8-0.5c0.2-0.3,0.2-0.6,0.1-1l0-0.1h2.9c0.4,0,0.7-0.2,0.9-0.6s0.1-0.7-0.1-1
			l-1.8-2.4h3.5c1.7,0,3-1.3,3-3V253c0,0,0,0,0,0C271,252.9,271,252.9,271,252.8z M251,242h10v8h-10V242z M246.1,248.7
			c0.4-0.4,0.9-0.7,1.5-0.7h2.4v2h-0.5c-0.3,0-0.5,0.2-0.5,0.5s0.2,0.5,0.5,0.5h13c0.3,0,0.5-0.2,0.5-0.5s-0.2-0.5-0.5-0.5H262v-2
			h2.4c0.6,0,1.1,0.2,1.5,0.7l3.5,3.8h-26.7L246.1,248.7z M263.5,264.2l-1-1.3V262c0-0.8-0.7-1.5-1.5-1.5h-10
			c-0.8,0-1.5,0.7-1.5,1.5v0.8l-1,1.3v-3.7c0-1.9,1.6-3.5,3.5-3.5h8c1.9,0,3.5,1.6,3.5,3.5V264.2z M261.5,262.5h-11V262
			c0-0.3,0.2-0.5,0.5-0.5h10c0.3,0,0.5,0.2,0.5,0.5V262.5z M250.3,270l2-4.5h7.4l2,4.5H250.3z M262.1,268.5l-1.7-3.7l0,0
			c0,0-0.1-0.1-0.1-0.1c0,0,0,0,0,0c0,0-0.1-0.1-0.1-0.1c0,0,0,0,0,0c-0.1,0-0.1,0-0.2,0h-8c-0.1,0-0.1,0-0.2,0c0,0,0,0,0,0
			c0,0-0.1,0-0.1,0.1c0,0,0,0,0,0c0,0-0.1,0.1-0.1,0.1l0,0l-1.7,3.7h-3.4l3.8-5h11.5l3.8,5H262.1z M270,262.5c0,1.1-0.9,2-2,2h-3.5
			v-4c0-2.5-2-4.5-4.5-4.5h-8c-2.5,0-4.5,2-4.5,4.5v4H244c-1.1,0-2-0.9-2-2v-9h28V262.5z"/>
		<path id="Shape_1_" d="M267.5,258c0.8,0,1.5-0.7,1.5-1.5c0-0.8-0.7-1.5-1.5-1.5c-0.8,0-1.5,0.7-1.5,1.5
			C266,257.3,266.7,258,267.5,258z M267.5,256c0.3,0,0.5,0.2,0.5,0.5c0,0.3-0.2,0.5-0.5,0.5c-0.3,0-0.5-0.2-0.5-0.5
			C267,256.2,267.2,256,267.5,256z"/>
		<circle id="Oval" cx="267.5" cy="259.5" r="0.5"/>
		<circle id="Oval_1_" cx="267.5" cy="261" r="0.5"/>
		<circle id="Oval_2_" cx="267.5" cy="262.5" r="0.5"/>
		<path id="Shape_2_" d="M254,267.5h4c0.3,0,0.5-0.2,0.5-0.5c0-0.3-0.2-0.5-0.5-0.5h-4c-0.3,0-0.5,0.2-0.5,0.5
			C253.5,267.3,253.7,267.5,254,267.5z"/>
		<path id="Shape_3_" d="M259,268h-6c-0.3,0-0.5,0.2-0.5,0.5c0,0.3,0.2,0.5,0.5,0.5h6c0.3,0,0.5-0.2,0.5-0.5
			C259.5,268.2,259.3,268,259,268z"/>
		<path id="Shape_4_" d="M243.5,256c0.3,0,0.5-0.2,0.5-0.5V255c0-0.3-0.2-0.5-0.5-0.5s-0.5,0.2-0.5,0.5v0.5
			C243,255.8,243.2,256,243.5,256z"/>
		<path id="Shape_5_" d="M243.5,261c0.3,0,0.5-0.2,0.5-0.5v-3c0-0.3-0.2-0.5-0.5-0.5s-0.5,0.2-0.5,0.5v3
			C243,260.8,243.2,261,243.5,261z"/>
	</g>
</g>
</svg>
