<svg xmlns="http://www.w3.org/2000/svg" width="53" height="49.5" viewBox="442 413 53 49.5"><path d="M445.5 455.4h1.8v-1.8h-1.8c-1 0-1.8-.8-1.8-1.8v-35.3c0-1 .8-1.8 1.8-1.8h38.9c1 0 1.8.8 1.8 1.8v1.8h1.8v-1.8c0-2-1.6-3.5-3.5-3.5h-38.9c-2 0-3.5 1.6-3.5 3.5v35.3c-.1 2 1.5 3.6 3.4 3.6z"/><path d="M445.5 416.5h1.8v1.8h-1.8v-1.8zm3.6 0h1.8v1.8h-1.8v-1.8zm3.5 0h1.8v1.8h-1.8v-1.8zm-3.5 42.4c0 2 1.6 3.5 3.5 3.5h38.9c2 0 3.5-1.6 3.5-3.5v-35.3c0-2-1.6-3.5-3.5-3.5h-38.9c-2 0-3.5 1.6-3.5 3.5v35.3zm1.7-35.3c0-1 .8-1.8 1.8-1.8h38.9c1 0 1.8.8 1.8 1.8v35.3c0 1-.8 1.8-1.8 1.8h-38.9c-1 0-1.8-.8-1.8-1.8v-35.3z"/><path d="M452.6 423.6h1.8v1.8h-1.8v-1.8zm3.5 0h1.8v1.8h-1.8v-1.8zm3.6 0h1.8v1.8h-1.8v-1.8zm-7.1 3.5h38.9v1.8h-38.9v-1.8zm0 4.5h7.1v1.8h-7.1v-1.8zm0 3.5h5.3v1.8h-5.3v-1.8zm19.4 3.5c-3.4 0-6.2 2.8-6.2 6.2 0 3.4 2.8 6.2 6.2 6.2s6.2-2.8 6.2-6.2c0-3.4-2.8-6.2-6.2-6.2zm0 10.6c-2.4 0-4.4-2-4.4-4.4 0-2.4 2-4.4 4.4-4.4 2.4 0 4.4 2 4.4 4.4 0 2.5-1.9 4.4-4.4 4.4z"/><path d="M486.2 442.2c0-.5-.4-.9-.9-.9H483c-.2-.6-.4-1.1-.7-1.7l1.7-1.6c.3-.3.3-.9 0-1.2l-3.7-3.7c-.3-.3-.9-.3-1.2 0l-1.6 1.7c-.5-.3-1.1-.5-1.7-.7v-2.3c0-.5-.4-.9-.9-.9h-5.3c-.5 0-.9.4-.9.9v2.3c-.6.2-1.1.4-1.7.7l-1.6-1.7c-.3-.3-.9-.3-1.2 0l-3.7 3.7c-.3.3-.3.9 0 1.2l1.7 1.6c-.1.1-.1.3-.2.4-.2.4-.3.8-.5 1.3h-2.3c-.5 0-.9.4-.9.9v5.3c0 .5.4.9.9.9h2.3c.2.6.4 1.1.7 1.7l-1.7 1.6c-.3.3-.3.9 0 1.2l3.7 3.7c.3.3.9.3 1.2 0l1.6-1.7c.5.3 1.1.5 1.7.7v2.3c0 .5.4.9.9.9h5.3c.5 0 .9-.4.9-.9v-2.3c.6-.2 1.1-.4 1.7-.7l1.6 1.7c.3.3.9.3 1.2 0l3.7-3.7c.3-.3.3-.9 0-1.2l-1.7-1.6c.3-.5.5-1.1.7-1.7h2.3c.5 0 .9-.4.9-.9v-5.3zm-1.8 4.4h-2.1c-.4 0-.8.3-.9.7-.2.9-.6 1.7-1 2.5-.2.3-.1.8.1 1.1l1.5 1.5-2.5 2.5-1.5-1.5c-.3-.3-.7-.3-1.1-.1-.8.5-1.6.8-2.5 1-.4.1-.7.5-.7.9v2.1h-3.5v-2.1c0-.4-.3-.8-.7-.9-.9-.2-1.7-.6-2.5-1-.3-.2-.8-.1-1.1.1l-1.5 1.5-2.5-2.5 1.5-1.5c.3-.3.3-.7.1-1.1-.5-.8-.8-1.6-1-2.5-.1-.4-.5-.7-.9-.7h-2.1V443h2.1c.4 0 .8-.3.9-.7.1-.6.3-1.1.6-1.6.1-.3.3-.6.5-.9.2-.3.1-.8-.1-1.1l-1.5-1.5 2.5-2.5 1.5 1.5c.3.3.7.3 1.1.1.8-.5 1.6-.8 2.5-1 .4-.1.7-.5.7-.9v-2.1h3.5v2.1c0 .4.3.8.7.9.9.2 1.7.6 2.5 1 .3.2.8.1 1.1-.1l1.5-1.5 2.5 2.5-1.5 1.5c-.3.3-.3.7-.1 1.1.5.8.8 1.6 1 2.5.1.4.5.7.9.7h2.1v3.6zm1.8 10.6h5.3v1.8h-5.3v-1.8z"/></svg>