<svg xmlns="http://www.w3.org/2000/svg" width="95" height="95" viewBox="373.4 250.1 95 95"><path d="M402.4 316.3c-.8-.8-2-.8-2.7 0-.7.7-.7 1.9 0 2.6l.1.1c.4.4.8.5 1.3.5s1-.2 1.3-.5c.7-.8.7-2 0-2.7z"/><path d="M442.2 276.4c-11.7-11.7-30.8-11.7-42.5 0-9.6 9.6-11.6 24.5-4.8 36.2.5.9 1.6 1.2 2.5.7.9-.5 1.2-1.6.7-2.5-5.9-10.3-4.2-23.4 4.2-31.8 10.3-10.3 27-10.3 37.3 0 10.3 10.3 10.3 27 0 37.3-8.5 8.5-21.6 10.2-31.9 4.1-.9-.5-2-.2-2.5.7-.5.9-.2 2 .7 2.5 4.7 2.7 9.9 4.1 15.1 4.1 7.8 0 15.5-3 21.3-8.8 11.6-11.7 11.6-30.8-.1-42.5z"/><path d="M468.4 289.5c0-.9-.7-1.7-1.6-1.8l-6.8-1.1-3.6-8.8 4.1-5.6c.5-.7.5-1.8-.2-2.4l-11.5-11.5c-.6-.6-1.7-.7-2.4-.2l-5.6 4.1-8.8-3.6-1.1-6.8c-.1-.9-.9-1.6-1.8-1.6h-16.3c-.9 0-1.7.7-1.8 1.6l-1.1 6.8-8.8 3.6-5.6-4.1c-.7-.5-1.8-.5-2.4.2l-11.5 11.5c-.6.6-.7 1.7-.2 2.4l4.1 5.6-3.6 8.8-6.8 1.1c-.9.1-1.6.9-1.6 1.8v16.3c0 .9.7 1.7 1.6 1.8l6.8 1.1 3.6 8.8-4.1 5.6c-.5.7-.5 1.8.2 2.4l11.5 11.5c.6.6 1.7.7 2.4.2l5.6-4.1 8.8 3.6 1.1 6.8c.1.9.9 1.6 1.8 1.6h16.3c.9 0 1.7-.7 1.8-1.6l1.1-6.8 8.8-3.6 5.6 4.1c.7.5 1.8.5 2.4-.2l11.5-11.5c.6-.6.7-1.7.2-2.4l-4.1-5.6 3.6-8.8 6.8-1.1c.9-.1 1.6-.9 1.6-1.8v-16.3zm-10 15.7c-.6.1-1.2.5-1.4 1.1l-4.4 10.7c-.2.6-.2 1.3.2 1.8l3.8 5.2-9.3 9.3-5.2-3.8c-.5-.4-1.2-.5-1.8-.2l-10.7 4.4c-.6.2-1 .8-1.1 1.4l-1 6.3h-13.1l-1-6.3c-.1-.6-.5-1.2-1.1-1.4l-10.7-4.4c-.2-.1-.5-.1-.7-.1-.4 0-.8.1-1.1.4l-5.2 3.8-9.3-9.3 3.8-5.2c.4-.5.5-1.2.2-1.8l-4.4-10.7c-.2-.6-.8-1-1.4-1.1l-6.3-1v-13.1l6.3-1c.6-.1 1.2-.5 1.4-1.1l4.4-10.7c.2-.6.2-1.3-.2-1.8l-3.8-5.2 9.3-9.3 5.2 3.8c.5.4 1.2.5 1.8.2l10.7-4.4c.6-.2 1-.8 1.1-1.4l1-6.3h13.1l1 6.3c.1.6.5 1.2 1.1 1.4l10.7 4.4c.6.2 1.3.2 1.8-.2l5.2-3.8 9.3 9.3-3.8 5.2c-.4.5-.5 1.2-.2 1.8L457 289c.2.6.8 1 1.4 1.1l6.3 1v13.1l-6.3 1z"/><path d="M437.8 300c-2.3-2.1-5.4-3-8.5-2.5l-8.1-8.1c.5-3.2-.6-6.5-2.9-8.9-2.9-2.9-7.3-3.8-11.1-2.3-.6.2-1 .7-1.1 1.3-.1.6.1 1.2.5 1.7l2.7 2.7c.6.6.6 1.5 0 2.1-.6.6-1.5.6-2.1 0l-2.7-2.7c-.4-.4-1.1-.6-1.7-.5-.6.1-1.1.5-1.4 1.1-1.6 4-.6 8.6 2.6 11.5 2.3 2.1 5.4 3 8.5 2.5l8.1 8.1c-.5 3.2.6 6.6 2.9 8.9 2 2 4.6 3 7.3 3 1.3 0 2.6-.2 3.9-.8.6-.2 1-.7 1.1-1.4.1-.6-.1-1.2-.5-1.7l-2.7-2.7c-.6-.6-.6-1.5 0-2.1.6-.6 1.5-.6 2.1 0l2.7 2.7c.4.4 1.1.6 1.7.5.6-.1 1.1-.5 1.3-1.1 1.7-3.8.6-8.5-2.6-11.3zm-.4 6.8c-2-2-5.3-2-7.3 0s-2 5.3 0 7.3l.1.1c-1.5-.2-2.9-.8-4-1.9-1.7-1.7-2.3-4.1-1.7-6.4.2-.6 0-1.3-.5-1.8l-9.6-9.6c-.4-.4-.8-.5-1.3-.5-.2 0-.3 0-.5.1-2.2.6-4.5 0-6.2-1.5-1.2-1.1-2-2.6-2.1-4.2l.1.1c2 2 5.3 2 7.3 0s2-5.3 0-7.3l-.1-.1c1.5.2 2.8.8 3.9 1.9 1.7 1.7 2.3 4.1 1.7 6.4-.2.6 0 1.3.5 1.8l9.6 9.6c.5.5 1.1.7 1.8.5 2.2-.6 4.5 0 6.2 1.5 1.3 1 2 2.5 2.1 4zm.5-22.4c-3.1-3.9-7.4-6.7-12.2-7.7-1-.2-2 .4-2.2 1.4s.4 2 1.4 2.2c4 .9 7.6 3.2 10.1 6.4.4.5.9.7 1.5.7.4 0 .8-.1 1.1-.4.8-.6.9-1.8.3-2.6zm3.5 6.7c-.3-1.1-1.4-1.6-2.4-1.3-1 .3-1.5 1.4-1.2 2.3v.1c.3.8 1 1.3 1.8 1.3.2 0 .4 0 .6-.1 1-.3 1.6-1.3 1.2-2.3z"/></svg>