<svg width="25" height="25" viewBox="0 0 25 25" xmlns="http://www.w3.org/2000/svg"><path d="M24.3 12c0 6.5-5.3 11.7-11.8 11.7-2.1 0-4-.5-5.7-1.5L.3 24.3 2.4 18C1.3 16.2.7 14.2.7 12 .8 5.6 6 .3 12.6.3 19.1.3 24.3 5.6 24.3 12zM12.5 2.2C7 2.2 2.6 6.6 2.6 12c0 2.2.7 4.1 1.9 5.8l-1.2 3.6 3.8-1.2c1.6 1 3.4 1.6 5.4 1.6 5.5 0 9.9-4.4 9.9-9.8.1-5.4-4.4-9.8-9.9-9.8zm6 12.5c-.1-.1-.3-.2-.6-.3-.3-.1-1.7-.8-2-.9-.3-.1-.5-.1-.7.1-.2.3-.7.9-.9 1.1-.2.2-.3.2-.6.1s-1.2-.4-2.3-1.4c-.9-.8-1.4-1.7-1.6-2-.2-.3 0-.4.1-.6.1-.1.3-.3.4-.5.1-.2.2-.3.3-.5.1-.2 0-.4 0-.5-.1-.1-.6-1.6-.9-2.1-.2-.6-.5-.5-.6-.5h-.6c-.2 0-.5.1-.8.4-.3.3-1 1-1 2.4s1 2.8 1.2 3c.1.2 2 3.2 4.9 4.3 2.9 1.1 2.9.8 3.5.7.5 0 1.7-.7 1.9-1.4.4-.7.4-1.3.3-1.4z"/></svg>